<svg width="515" height="400" viewBox="0 0 515 400" fill="none" xmlns="http://www.w3.org/2000/svg">
<path d="M94.428 257.049C96.0212 256.961 97.241 255.597 97.1524 254.004C97.0639 252.411 95.7006 251.191 94.1074 251.28C92.5142 251.368 91.2944 252.731 91.3829 254.325C91.4714 255.918 92.8347 257.138 94.428 257.049Z" fill="#6A0DAD"/>
<path d="M79.8967 257.857C81.4899 257.768 82.7097 256.405 82.6212 254.812C82.5327 253.218 81.1694 251.999 79.5762 252.087C77.983 252.176 76.7632 253.539 76.8517 255.132C76.9402 256.725 78.3035 257.945 79.8967 257.857Z" fill="#6A0DAD"/>
<path d="M65.3655 258.664C66.9587 258.575 68.1785 257.212 68.0899 255.619C68.0014 254.026 66.6381 252.806 65.0449 252.894C63.4517 252.983 62.2319 254.346 62.3204 255.939C62.4089 257.533 63.7722 258.752 65.3655 258.664Z" fill="#6A0DAD"/>
<path d="M95.1233 269.618C96.7165 269.529 97.9363 268.166 97.8477 266.573C97.7592 264.98 96.3959 263.76 94.8027 263.848C93.2095 263.937 91.9897 265.3 92.0782 266.893C92.1668 268.487 93.5301 269.706 95.1233 269.618Z" fill="#6A0DAD"/>
<path d="M80.5959 270.425C82.1891 270.337 83.4089 268.973 83.3204 267.38C83.2319 265.787 81.8686 264.567 80.2754 264.656C78.6822 264.744 77.4624 266.107 77.5509 267.701C77.6394 269.294 79.0027 270.514 80.5959 270.425Z" fill="#6A0DAD"/>
<path d="M66.0647 271.232C67.6579 271.144 68.8777 269.781 68.7892 268.187C68.7006 266.594 67.3373 265.374 65.7441 265.463C64.1509 265.551 62.9311 266.915 63.0196 268.508C63.1082 270.101 64.4715 271.321 66.0647 271.232Z" fill="#6A0DAD"/>
<path d="M95.8225 282.187C97.4157 282.098 98.6355 280.735 98.547 279.141C98.4584 277.548 97.0951 276.328 95.5019 276.417C93.9087 276.506 92.6889 277.869 92.7775 279.462C92.866 281.055 94.2293 282.275 95.8225 282.187Z" fill="#6A0DAD"/>
<path d="M81.2912 282.994C82.8844 282.905 84.1042 281.542 84.0157 279.949C83.9272 278.356 82.5639 277.136 80.9707 277.224C79.3775 277.313 78.1577 278.676 78.2462 280.269C78.3347 281.862 79.698 283.082 81.2912 282.994Z" fill="#6A0DAD"/>
<path d="M66.7639 283.801C68.3571 283.713 69.5769 282.349 69.4884 280.756C69.3999 279.163 68.0366 277.943 66.4433 278.032C64.8501 278.12 63.6304 279.483 63.7189 281.077C63.8074 282.67 65.1707 283.89 66.7639 283.801Z" fill="#6A0DAD"/>
<path d="M466.975 155.542C468.568 155.454 469.788 154.09 469.699 152.497C469.611 150.904 468.247 149.684 466.654 149.773C465.061 149.861 463.841 151.225 463.93 152.818C464.018 154.411 465.382 155.631 466.975 155.542Z" fill="black"/>
<path d="M456.135 145.834C457.728 145.746 458.948 144.382 458.859 142.789C458.771 141.196 457.408 139.976 455.814 140.065C454.221 140.153 453.001 141.517 453.09 143.11C453.178 144.703 454.542 145.923 456.135 145.834Z" fill="black"/>
<path d="M445.283 136.136C446.877 136.047 448.096 134.684 448.008 133.091C447.919 131.497 446.556 130.278 444.963 130.366C443.37 130.455 442.15 131.818 442.238 133.411C442.327 135.004 443.69 136.224 445.283 136.136Z" fill="black"/>
<path d="M458.584 164.921C460.177 164.832 461.397 163.469 461.309 161.876C461.22 160.283 459.857 159.063 458.264 159.151C456.67 159.24 455.451 160.603 455.539 162.197C455.628 163.79 456.991 165.01 458.584 164.921Z" fill="black"/>
<path d="M447.733 155.222C449.326 155.134 450.546 153.77 450.457 152.177C450.369 150.584 449.005 149.364 447.412 149.453C445.819 149.541 444.599 150.905 444.688 152.498C444.776 154.091 446.139 155.311 447.733 155.222Z" fill="black"/>
<path d="M436.893 145.514C438.486 145.426 439.706 144.062 439.617 142.469C439.529 140.876 438.165 139.656 436.572 139.745C434.979 139.833 433.759 141.197 433.848 142.79C433.936 144.383 435.3 145.603 436.893 145.514Z" fill="black"/>
<path d="M450.182 174.309C451.775 174.22 452.995 172.857 452.906 171.264C452.818 169.671 451.455 168.451 449.861 168.539C448.268 168.628 447.048 169.991 447.137 171.584C447.225 173.178 448.589 174.397 450.182 174.309Z" fill="black"/>
<path d="M439.342 164.601C440.935 164.512 442.155 163.149 442.066 161.556C441.978 159.963 440.615 158.743 439.021 158.831C437.428 158.92 436.208 160.283 436.297 161.876C436.386 163.47 437.749 164.689 439.342 164.601Z" fill="black"/>
<path d="M428.494 154.902C430.088 154.814 431.307 153.451 431.219 151.857C431.13 150.264 429.767 149.044 428.174 149.133C426.581 149.221 425.361 150.585 425.449 152.178C425.538 153.771 426.901 154.991 428.494 154.902Z" fill="black"/>
<path d="M187.172 206.649L170.594 198.328L185.744 188.805L187.172 206.649Z" fill="#6A0DAD"/>
<path d="M410.895 305.495L402.336 321.953L393.037 306.666L410.895 305.495Z" fill="#ACA6FF"/>
<path d="M89.9917 118.255L72.1235 123.246L76.9354 106.008L89.9917 118.255Z" fill="#ACA6FF"/>
<path d="M65.2824 76.9941C68.4051 76.8206 70.7959 74.1485 70.6224 71.0258C70.4489 67.9032 67.7768 65.5124 64.6541 65.6859C61.5315 65.8594 59.1406 68.5314 59.3141 71.6541C59.4876 74.7768 62.1597 77.1676 65.2824 76.9941Z" fill="#003401"/>
<path d="M133.869 31.1827L143.38 24.9649L137.162 15.4541L127.651 21.6719L133.869 31.1827Z" fill="#6A0DAD"/>
<path d="M400.12 255.163L408.949 262.312L416.097 253.474L407.259 246.326L400.12 255.163Z" fill="#FF00FF"/>
<path d="M385.935 51.8543L386.53 51.1891L370.481 36.8379L369.886 37.4942L385.935 51.8543Z" fill="#FF00FF"/>
<path d="M371.361 52.6641L385.721 36.6145L385.056 36.0281L370.695 52.0689L371.361 52.6641Z" fill="#FF00FF"/>
<path d="M383.68 194.835L398.196 206.938C398.572 207.251 399.135 207.2 399.449 206.824C399.762 206.449 399.711 205.885 399.335 205.572L384.819 193.469C384.443 193.156 383.88 193.207 383.567 193.583C383.254 193.958 383.305 194.522 383.68 194.835ZM283.357 54.9257L297.873 67.0287C298.248 67.3419 298.812 67.2908 299.125 66.9152C299.438 66.5397 299.387 65.9763 299.011 65.6632L284.495 53.5601C284.12 53.247 283.556 53.2981 283.243 53.6736C282.93 54.0492 282.981 54.6126 283.357 54.9257Z" fill="#6A0DAD"/>
<path d="M290.236 197.565C273.358 265.626 204.5 307.115 136.436 290.237C68.3743 273.362 26.8846 204.501 43.7627 136.441C60.6409 68.3769 129.499 26.8845 197.56 43.7625C197.675 43.7911 197.792 43.8197 197.906 43.8511C265.787 60.8863 307.086 129.636 290.236 197.565Z" fill="#F7931A"/>
<path fill-rule="evenodd" clip-rule="evenodd" d="M283.442 195.88L283.442 195.88C299.362 131.696 260.341 66.7367 196.202 50.6406L196.126 50.6214L196.052 50.6012C196.052 50.6012 196.042 50.5985 196.016 50.5918L195.954 50.5762L195.875 50.5568C195.874 50.5564 195.873 50.5561 195.871 50.5557C131.564 34.6109 66.5043 73.8154 50.557 138.125L50.557 138.125C34.6092 202.434 73.812 267.498 138.12 283.443L138.12 283.443C202.432 299.391 267.494 260.188 283.442 195.88ZM197.56 43.7625L197.617 43.7768C197.713 43.8007 197.811 43.8249 197.906 43.8511C265.787 60.8863 307.086 129.636 290.236 197.565C273.358 265.626 204.5 307.115 136.436 290.237C68.3743 273.362 26.8846 204.501 43.7627 136.441C60.6409 68.3769 129.499 26.8845 197.56 43.7625Z" fill="#CAFF54"/>
<path d="M195.805 148.522C191.837 164.394 167.634 156.258 159.778 154.315L166.72 126.541C174.456 128.447 199.773 132.095 195.685 148.522H195.805ZM191.48 193.402C187.195 210.697 158.072 201.338 148.627 198.993L156.284 168.322C165.728 170.702 195.962 175.344 191.48 193.402ZM223.222 148.762C225.722 131.858 212.866 122.773 195.448 116.742L201.162 93.8478L187.078 90.3568L181.524 112.657C177.873 111.746 174.105 110.872 170.374 110.037L175.927 87.4999L162 84.0089L156.287 106.903L147.399 104.921L128.155 100.118L124.464 115C124.464 115 134.78 117.379 134.583 117.539C138.523 118.016 141.397 121.516 141.091 125.476L134.583 151.544C135.072 151.655 135.552 151.813 136.012 152.021L134.543 151.624L125.456 188.168C124.604 190.842 121.747 192.314 119.071 191.462H119.068C119.068 191.659 108.909 188.963 108.909 188.963L102.004 204.835L120.136 209.32L130.055 211.9L124.301 235.032L138.229 238.523L143.942 215.628C147.696 216.659 151.39 217.611 155.012 218.485L149.379 241.459L163.306 244.911L169.059 221.819C192.865 226.307 210.681 224.516 218.22 203.012C224.291 185.712 217.903 175.753 205.404 169.245C214.529 167.142 221.277 161.309 223.219 148.77L223.222 148.762Z" fill="white"/>
<path d="M315.813 331.38C289.29 337.486 264.835 350.448 244.893 368.97C244.45 369.333 243.924 369.581 243.362 369.691C242.8 369.801 242.22 369.77 241.673 369.6C230.764 365.686 219.651 362.364 208.383 359.65C207.203 359.37 206.513 357.04 207.303 356.22C227.303 335.06 253.223 320.16 282.113 310.82C283.455 310.481 284.874 310.634 286.113 311.25C296.913 317.25 307.223 321.88 316.423 328.16C317.353 328.79 316.883 331.13 315.813 331.38Z" fill="black"/>
<path d="M315.815 329.45C289.292 335.564 264.838 348.529 244.895 367.05C244.452 367.414 243.926 367.661 243.363 367.77C242.801 367.878 242.22 367.844 241.675 367.67C230.762 363.768 219.65 360.45 208.385 357.73C207.205 357.45 206.855 356.53 207.655 355.73C228.162 334.139 253.766 318.046 282.115 308.93C283.457 308.592 284.875 308.744 286.115 309.36C296.915 315.36 306.885 321.63 316.115 327.91C317.025 328.51 316.885 329.21 315.815 329.45Z" fill="#01E46F"/>
<path d="M242.677 368.02C242.313 368.025 241.951 367.968 241.607 367.85C230.705 363.946 219.603 360.628 208.347 357.91C208.066 357.869 207.801 357.755 207.578 357.58C207.355 357.404 207.182 357.173 207.077 356.91C207.022 356.666 207.034 356.412 207.111 356.175C207.189 355.937 207.329 355.725 207.517 355.56C228.055 333.956 253.683 317.848 282.057 308.71C283.456 308.354 284.936 308.513 286.227 309.16C296.447 314.86 306.537 321.1 316.227 327.71C316.737 328.06 316.977 328.46 316.907 328.83C316.837 329.2 316.467 329.49 315.907 329.63C289.417 335.731 264.993 348.679 245.077 367.18C244.406 367.743 243.552 368.041 242.677 368.02ZM283.467 308.9C283.03 308.894 282.595 308.955 282.177 309.08C253.863 318.203 228.288 334.276 207.787 355.83C207.641 355.947 207.53 356.103 207.468 356.28C207.407 356.457 207.396 356.647 207.437 356.83C207.527 357.028 207.666 357.198 207.841 357.326C208.016 357.454 208.221 357.535 208.437 357.56C219.708 360.294 230.824 363.632 241.737 367.56C242.247 367.715 242.787 367.743 243.31 367.64C243.834 367.537 244.323 367.307 244.737 366.97C264.704 348.43 289.185 335.451 315.737 329.33C316.177 329.23 316.447 329.05 316.497 328.83C316.547 328.61 316.347 328.35 315.977 328.09C306.307 321.49 296.227 315.25 285.977 309.55C285.202 309.14 284.343 308.917 283.467 308.9Z" fill="black"/>
<path d="M305.135 328.5L305.405 328.67C306.265 329.23 306.125 329.91 305.095 330.22C284.047 336.432 264.536 346.993 247.825 361.22C247.388 361.563 246.873 361.794 246.326 361.894C245.779 361.993 245.216 361.957 244.685 361.79L244.505 361.72C243.972 361.551 243.405 361.517 242.855 361.621C242.305 361.726 241.789 361.966 241.355 362.32C240.926 362.675 240.417 362.92 239.871 363.033C239.326 363.147 238.761 363.125 238.225 362.97C231.739 360.71 224.945 358.593 217.845 356.62C217.624 356.607 217.413 356.525 217.241 356.385C217.07 356.245 216.947 356.054 216.89 355.84C216.834 355.626 216.846 355.399 216.926 355.193C217.006 354.986 217.15 354.81 217.335 354.69C218.115 353.91 217.905 353.05 216.825 352.75L216.515 352.67C215.445 352.38 215.205 351.51 216.005 350.73C233.195 334.387 253.508 321.683 275.725 313.38C276.959 312.985 278.296 313.064 279.475 313.6L279.815 313.78C280.988 314.31 282.311 314.402 283.545 314.04L284.435 313.75C285.681 313.397 287.014 313.519 288.175 314.09C294.625 317.73 300.765 321.45 306.615 325.2C307.495 325.77 307.345 326.45 306.315 326.73L305.435 326.98C304.405 327.26 304.275 327.95 305.135 328.5Z" fill="#003401"/>
<path d="M239.097 363.38C238.758 363.385 238.42 363.335 238.097 363.23C231.437 360.91 224.577 358.78 217.727 356.89C217.475 356.865 217.236 356.764 217.043 356.599C216.85 356.435 216.713 356.216 216.648 355.97C216.584 355.725 216.596 355.466 216.684 355.229C216.771 354.991 216.929 354.785 217.137 354.64C217.288 354.524 217.406 354.371 217.48 354.196C217.554 354.021 217.58 353.829 217.557 353.64C217.492 353.468 217.381 353.318 217.237 353.205C217.092 353.092 216.919 353.021 216.737 353L216.427 352.91C216.171 352.891 215.928 352.792 215.732 352.628C215.535 352.464 215.394 352.243 215.329 351.995C215.264 351.748 215.278 351.486 215.369 351.246C215.46 351.007 215.624 350.802 215.837 350.66C233.033 334.235 253.393 321.483 275.677 313.18C276.964 312.774 278.356 312.856 279.587 313.41L279.927 313.59C281.052 314.095 282.32 314.188 283.507 313.85L284.397 313.55C285.696 313.187 287.083 313.312 288.297 313.9C294.487 317.38 300.677 321.16 306.677 325.03C307.327 325.44 307.367 325.85 307.337 326.03C307.277 326.4 306.917 326.7 306.337 326.86L305.457 327.11C305.027 327.24 304.757 327.44 304.727 327.66C304.697 327.88 304.877 328.1 305.207 328.31L305.477 328.48C305.947 328.78 306.177 329.14 306.127 329.48C306.077 329.82 305.717 330.17 305.127 330.35C284.109 336.594 264.625 347.152 247.917 361.35C247.454 361.716 246.908 361.963 246.328 362.07C245.747 362.176 245.149 362.138 244.587 361.96L244.407 361.88C243.906 361.725 243.375 361.697 242.861 361.796C242.346 361.895 241.864 362.12 241.457 362.45C240.81 363.037 239.97 363.368 239.097 363.38ZM277.277 313.3C276.771 313.294 276.268 313.372 275.787 313.53C253.571 321.819 233.273 334.54 216.127 350.92C215.972 351.031 215.852 351.184 215.781 351.362C215.71 351.539 215.691 351.733 215.727 351.92C215.789 352.097 215.9 352.252 216.047 352.369C216.194 352.486 216.371 352.559 216.557 352.58L216.867 352.66C217.119 352.688 217.356 352.791 217.548 352.956C217.739 353.122 217.876 353.342 217.94 353.587C218.004 353.832 217.992 354.091 217.906 354.329C217.82 354.567 217.663 354.773 217.457 354.92C217.306 355.036 217.189 355.189 217.115 355.365C217.041 355.54 217.014 355.731 217.037 355.92C217.1 356.093 217.21 356.246 217.355 356.361C217.5 356.476 217.673 356.548 217.857 356.57C224.717 358.47 231.577 360.57 238.257 362.93C238.758 363.071 239.286 363.089 239.796 362.982C240.306 362.876 240.783 362.649 241.187 362.32L241.357 362.41L241.237 362.27C241.696 361.892 242.242 361.636 242.825 361.524C243.409 361.412 244.011 361.449 244.577 361.63L244.757 361.71C245.254 361.862 245.781 361.892 246.293 361.798C246.804 361.704 247.286 361.489 247.697 361.17C264.445 346.936 283.978 336.351 305.047 330.09C305.487 329.96 305.747 329.75 305.787 329.53C305.827 329.31 305.637 329.09 305.307 328.88L305.037 328.71C304.567 328.41 304.337 328.05 304.387 327.71C304.437 327.37 304.797 327.02 305.387 326.85L306.277 326.6C306.707 326.48 306.977 326.28 307.017 326.07C307.057 325.86 306.867 325.63 306.527 325.41C300.527 321.55 294.307 317.81 288.097 314.3C286.979 313.763 285.704 313.646 284.507 313.97L283.617 314.27C282.333 314.649 280.956 314.553 279.737 314L279.397 313.82C278.741 313.482 278.015 313.304 277.277 313.3Z" fill="black"/>
<path d="M245.756 342.38C243.426 339.38 243.455 335.47 246.125 332.11C250.425 326.62 260.326 324.51 267.676 327.11C270.21 327.856 272.413 329.447 273.916 331.62C275.796 334.67 275.105 338.17 272.355 341.17C267.855 345.97 259.465 348.39 252.355 346.48C249.764 345.877 247.444 344.436 245.756 342.38Z" fill="black"/>
<path d="M257.457 347.38C255.709 347.388 253.967 347.166 252.277 346.72C249.659 346.097 247.317 344.637 245.607 342.56C243.177 339.42 243.327 335.39 245.987 332.05C250.227 326.64 260.197 324.32 267.747 326.99C270.319 327.753 272.552 329.373 274.077 331.58C275.967 334.65 275.387 338.21 272.497 341.36C268.917 345.12 263.127 347.38 257.457 347.38ZM260.917 326.25C255.107 326.25 249.257 328.49 246.277 332.25C243.727 335.45 243.587 339.3 245.907 342.3C247.573 344.3 249.843 345.704 252.377 346.3C259.287 348.15 267.627 345.94 272.217 341.04C274.987 338.04 275.547 334.63 273.757 331.72C272.28 329.582 270.112 328.017 267.617 327.29C265.462 326.548 263.196 326.179 260.917 326.2V326.25Z" fill="black"/>
<path d="M266.936 328.52C273.506 330.81 275.036 335.98 271.076 340.25C267.116 344.52 259.276 346.68 252.876 344.94C246.476 343.2 243.766 337.81 247.576 333C251.386 328.19 260.376 326.23 266.936 328.52Z" fill="black"/>
<path d="M257.587 345.73C255.98 345.741 254.379 345.536 252.827 345.12C249.317 344.12 246.827 342.12 245.957 339.51C245.619 338.371 245.577 337.165 245.834 336.005C246.091 334.845 246.639 333.77 247.427 332.88C251.227 328.05 260.187 325.97 266.997 328.35C270.427 329.54 272.647 331.56 273.267 334.03C273.787 336.14 273.067 338.39 271.217 340.38C268.077 343.75 262.747 345.73 257.587 345.73ZM260.997 327.73C255.737 327.73 250.357 329.73 247.727 333.08C246.977 333.92 246.454 334.938 246.207 336.037C245.96 337.136 245.998 338.28 246.317 339.36C247.137 341.85 249.547 343.81 252.917 344.73C259.147 346.42 266.917 344.43 270.917 340.09C272.667 338.2 273.367 336.09 272.867 334.09C272.287 331.75 270.147 329.82 266.867 328.67C264.975 328.041 262.991 327.733 260.997 327.76V327.73Z" fill="black"/>
<path d="M236.614 352.21C234.334 351.41 233.864 349.55 235.664 348.08C236.736 347.338 237.966 346.854 239.257 346.669C240.549 346.483 241.865 346.6 243.104 347.01C245.374 347.87 245.694 349.69 243.914 351.09C242.858 351.81 241.654 352.284 240.391 352.478C239.127 352.672 237.837 352.58 236.614 352.21Z" fill="black"/>
<path d="M239.033 352.77C238.19 352.782 237.352 352.65 236.553 352.38C236.044 352.261 235.577 352.008 235.199 351.648C234.821 351.287 234.546 350.832 234.403 350.33C234.357 349.866 234.439 349.397 234.64 348.976C234.841 348.555 235.153 348.197 235.543 347.94C236.639 347.17 237.901 346.669 239.227 346.478C240.552 346.287 241.904 346.411 243.173 346.84C243.662 346.961 244.109 347.21 244.47 347.562C244.83 347.913 245.09 348.354 245.223 348.84C245.255 349.303 245.161 349.765 244.952 350.179C244.742 350.593 244.425 350.942 244.033 351.19C242.578 352.237 240.826 352.791 239.033 352.77ZM236.673 352.03C237.865 352.396 239.125 352.489 240.358 352.3C241.591 352.111 242.765 351.646 243.793 350.94C244.131 350.731 244.408 350.435 244.594 350.084C244.781 349.732 244.87 349.337 244.853 348.94C244.743 348.22 244.093 347.6 243.033 347.2C241.829 346.795 240.548 346.675 239.291 346.849C238.033 347.022 236.832 347.485 235.783 348.2C235.454 348.415 235.189 348.714 235.013 349.065C234.837 349.416 234.758 349.808 234.783 350.2C234.917 350.636 235.163 351.029 235.496 351.339C235.83 351.65 236.239 351.867 236.683 351.97L236.673 352.03Z" fill="black"/>
<path d="M278.553 326.44C276.403 325.32 276.363 323.63 278.553 322.73C281.17 321.862 284.024 322.063 286.493 323.29C288.633 324.49 288.493 326.09 286.333 326.93C283.77 327.746 280.994 327.571 278.553 326.44Z" fill="black"/>
<path d="M283.194 327.64C281.565 327.671 279.95 327.329 278.474 326.64C277.314 326.04 276.704 325.26 276.744 324.46C276.784 323.66 277.404 323.03 278.514 322.58C279.836 322.139 281.232 321.963 282.622 322.063C284.012 322.162 285.368 322.535 286.614 323.16C287.724 323.78 288.304 324.55 288.254 325.32C288.204 326.09 287.554 326.71 286.434 327.14C285.393 327.5 284.295 327.669 283.194 327.64ZM281.724 322.38C280.677 322.359 279.636 322.535 278.654 322.9C277.654 323.29 277.144 323.84 277.114 324.45C277.084 325.06 277.644 325.75 278.644 326.27C281.044 327.38 283.772 327.555 286.294 326.76C287.294 326.38 287.834 325.85 287.874 325.26C287.914 324.67 287.404 324 286.424 323.46C284.968 322.725 283.355 322.355 281.724 322.38Z" fill="black"/>
<path d="M207.914 346.22L212.794 346.11V347.3L281.294 307.82C281.859 307.553 282.48 307.421 283.105 307.437C283.73 307.453 284.343 307.615 284.894 307.91L312.154 323.67L311.874 323.37L316.924 322.71V324.81C316.918 325.024 316.851 325.232 316.731 325.41C316.61 325.587 316.441 325.726 316.244 325.81L243.534 367.73C242.969 367.998 242.349 368.129 241.723 368.113C241.098 368.097 240.485 367.935 239.934 367.64L208.724 349.59C208.501 349.491 208.308 349.334 208.165 349.135C208.023 348.937 207.936 348.704 207.914 348.46V346.22Z" fill="black"/>
<path d="M208.595 345.32L281.295 303.38C281.861 303.109 282.483 302.976 283.11 302.99C283.737 303.003 284.352 303.165 284.905 303.46L316.105 321.46C317.105 322.06 317.215 323 316.255 323.54L243.545 365.46C242.98 365.728 242.36 365.859 241.735 365.843C241.109 365.827 240.497 365.665 239.945 365.37L208.735 347.37C207.675 346.8 207.675 345.87 208.595 345.32Z" fill="#01E46F"/>
<path d="M241.896 366.12C241.196 366.122 240.508 365.947 239.896 365.61L208.686 347.61C208.433 347.492 208.215 347.31 208.054 347.082C207.892 346.854 207.793 346.588 207.766 346.31C207.785 346.074 207.867 345.847 208.002 345.652C208.137 345.457 208.321 345.301 208.536 345.2L281.236 303.29C281.83 303.002 282.485 302.859 283.145 302.873C283.806 302.887 284.454 303.057 285.036 303.37L316.196 321.38C316.449 321.495 316.667 321.675 316.829 321.901C316.991 322.128 317.089 322.393 317.116 322.67C317.102 322.909 317.023 323.14 316.887 323.338C316.751 323.535 316.564 323.692 316.346 323.79L243.676 365.7C243.129 365.994 242.516 366.138 241.896 366.12ZM282.966 303.21C282.417 303.198 281.874 303.321 281.386 303.57L208.676 345.48C208.518 345.552 208.382 345.663 208.28 345.803C208.178 345.944 208.115 346.108 208.096 346.28C208.117 346.497 208.196 346.704 208.324 346.879C208.453 347.055 208.626 347.194 208.826 347.28L240.026 365.28C240.549 365.562 241.131 365.717 241.725 365.733C242.319 365.748 242.908 365.624 243.446 365.37L316.156 323.46C316.312 323.389 316.447 323.279 316.549 323.141C316.651 323.003 316.715 322.84 316.736 322.67C316.711 322.453 316.63 322.246 316.5 322.07C316.37 321.895 316.196 321.757 315.996 321.67L284.796 303.67C284.234 303.364 283.605 303.206 282.966 303.21Z" fill="black"/>
<path d="M219.034 344.55L218.744 344.38C217.794 343.83 217.744 342.95 218.744 342.38L277.214 308.68C277.749 308.409 278.34 308.267 278.939 308.267C279.539 308.267 280.13 308.409 280.664 308.68L280.834 308.79C281.366 309.064 281.956 309.206 282.554 309.206C283.152 309.206 283.742 309.064 284.274 308.79H284.324C284.855 308.523 285.44 308.385 286.034 308.385C286.628 308.385 287.213 308.523 287.744 308.79L306.904 319.87C307.854 320.42 307.904 321.3 306.904 321.87C305.974 322.41 305.984 323.29 306.904 323.87L307.184 324.03C308.184 324.57 308.184 325.46 307.184 326.03L248.694 359.75C248.166 360.014 247.584 360.151 246.994 360.151C246.404 360.151 245.822 360.014 245.294 359.75L244.964 359.56C244.437 359.294 243.855 359.155 243.264 359.155C242.674 359.155 242.091 359.294 241.564 359.56L240.804 359.99C240.274 360.259 239.688 360.399 239.094 360.399C238.5 360.399 237.914 360.259 237.384 359.99L218.324 348.99C217.324 348.44 217.324 347.56 218.264 346.99L219.044 346.54C220.004 345.98 219.984 345.1 219.034 344.55Z" fill="#C1C8CC"/>
<path d="M239.175 360.58C238.532 360.589 237.896 360.437 237.325 360.14L218.265 349.14C218.036 349.037 217.839 348.873 217.695 348.667C217.551 348.462 217.464 348.221 217.445 347.97C217.461 347.733 217.54 347.504 217.674 347.307C217.807 347.11 217.991 346.952 218.205 346.85L218.995 346.39C219.153 346.318 219.289 346.207 219.391 346.067C219.493 345.926 219.556 345.762 219.575 345.59C219.55 345.408 219.48 345.235 219.369 345.088C219.259 344.941 219.113 344.825 218.945 344.75L218.655 344.58C218.426 344.477 218.229 344.313 218.085 344.107C217.941 343.902 217.854 343.661 217.835 343.41C217.852 343.169 217.934 342.937 218.071 342.738C218.208 342.54 218.396 342.381 218.615 342.28L277.085 308.58C277.648 308.294 278.269 308.145 278.9 308.145C279.531 308.145 280.153 308.294 280.715 308.58L280.895 308.69C281.398 308.949 281.955 309.084 282.52 309.084C283.086 309.084 283.643 308.949 284.145 308.69H284.195C284.754 308.409 285.37 308.262 285.995 308.262C286.621 308.262 287.237 308.409 287.795 308.69L306.955 319.77C307.184 319.872 307.38 320.033 307.525 320.237C307.669 320.441 307.756 320.681 307.775 320.93C307.758 321.171 307.677 321.403 307.54 321.602C307.403 321.8 307.215 321.959 306.995 322.06C306.575 322.31 306.365 322.6 306.365 322.89C306.387 323.073 306.457 323.247 306.568 323.394C306.678 323.542 306.826 323.658 306.995 323.73L307.275 323.89C307.503 323.994 307.7 324.156 307.845 324.359C307.991 324.563 308.081 324.801 308.105 325.05C308.088 325.293 308.006 325.528 307.867 325.728C307.728 325.929 307.537 326.088 307.315 326.19L248.825 359.91C248.27 360.188 247.657 360.333 247.035 360.333C246.414 360.333 245.801 360.188 245.245 359.91L244.915 359.72C244.418 359.469 243.868 359.338 243.31 359.338C242.753 359.338 242.203 359.469 241.705 359.72L240.945 360.16C240.4 360.447 239.791 360.592 239.175 360.58ZM278.865 308.49C278.311 308.475 277.763 308.607 277.275 308.87L218.805 342.57C218.644 342.639 218.503 342.749 218.398 342.89C218.293 343.03 218.226 343.196 218.205 343.37C218.229 343.554 218.299 343.729 218.409 343.877C218.519 344.026 218.666 344.144 218.835 344.22L219.135 344.39C219.361 344.496 219.555 344.659 219.698 344.862C219.842 345.065 219.931 345.302 219.955 345.55C219.94 345.79 219.861 346.022 219.725 346.221C219.59 346.419 219.403 346.578 219.185 346.68L218.395 347.14C218.239 347.211 218.103 347.321 218.002 347.459C217.9 347.597 217.836 347.76 217.815 347.93C217.839 348.115 217.91 348.291 218.022 348.44C218.134 348.589 218.284 348.706 218.455 348.78L237.515 359.78C238.018 360.034 238.573 360.166 239.135 360.166C239.698 360.166 240.253 360.034 240.755 359.78L241.515 359.34C242.069 359.057 242.683 358.909 243.305 358.909C243.928 358.909 244.541 359.057 245.095 359.34L245.425 359.53C245.925 359.781 246.476 359.912 247.035 359.912C247.594 359.912 248.146 359.781 248.645 359.53L307.125 325.82C307.288 325.75 307.429 325.638 307.535 325.496C307.64 325.354 307.706 325.186 307.725 325.01C307.703 324.827 307.633 324.653 307.523 324.506C307.412 324.358 307.265 324.242 307.095 324.17L306.815 324.01C306.586 323.906 306.388 323.743 306.242 323.538C306.096 323.332 306.007 323.091 305.985 322.84C306.004 322.598 306.088 322.366 306.227 322.167C306.365 321.969 306.555 321.811 306.775 321.71C307.185 321.46 307.405 321.18 307.405 320.88C307.405 320.58 307.175 320.28 306.765 320.04L287.605 308.97C287.107 308.714 286.555 308.58 285.995 308.58C285.435 308.58 284.883 308.714 284.385 308.97H284.335C283.772 309.258 283.148 309.408 282.515 309.408C281.883 309.408 281.259 309.258 280.695 308.97L280.525 308.86C280.013 308.596 279.441 308.468 278.865 308.49Z" fill="black"/>
<path d="M277.054 328.67C278.036 330.372 278.453 332.342 278.242 334.296C278.032 336.25 277.206 338.086 275.884 339.54C271.444 344.88 262.384 346.7 255.264 343.7C252.671 342.691 250.481 340.857 249.034 338.48C248.051 336.779 247.633 334.81 247.841 332.856C248.05 330.902 248.874 329.065 250.194 327.61C254.644 322.28 263.694 320.45 270.814 323.45C273.408 324.462 275.6 326.295 277.054 328.67Z" fill="black"/>
<path d="M262.605 345.38C260.062 345.393 257.543 344.896 255.195 343.92C252.562 342.903 250.34 341.043 248.875 338.63C247.87 336.895 247.442 334.886 247.655 332.892C247.867 330.899 248.707 329.024 250.055 327.54C254.545 322.15 263.695 320.3 270.885 323.33C273.52 324.354 275.744 326.216 277.215 328.63C278.216 330.364 278.641 332.371 278.429 334.362C278.217 336.353 277.379 338.226 276.035 339.71C272.995 343.3 267.845 345.38 262.605 345.38ZM263.475 322.25C258.345 322.25 253.305 324.25 250.345 327.78C249.063 329.201 248.261 330.991 248.055 332.894C247.849 334.797 248.247 336.717 249.195 338.38C250.627 340.72 252.788 342.526 255.345 343.52C262.345 346.52 271.345 344.69 275.745 339.41C277.041 337.986 277.85 336.186 278.055 334.271C278.26 332.357 277.85 330.426 276.885 328.76C275.46 326.418 273.301 324.611 270.745 323.62C268.44 322.668 265.969 322.186 263.475 322.2V322.25Z" fill="black"/>
<path d="M255.934 342.12C249.574 339.43 247.594 333.43 251.524 328.71C255.454 323.99 263.784 322.36 270.144 325.04C276.504 327.72 278.484 333.73 274.564 338.44C270.644 343.15 262.304 344.81 255.934 342.12Z" fill="black"/>
<path d="M262.544 343.59C260.253 343.604 257.983 343.162 255.864 342.29C252.524 340.88 250.214 338.46 249.524 335.65C249.251 334.411 249.276 333.124 249.597 331.897C249.919 330.669 250.528 329.536 251.374 328.59C255.374 323.83 263.794 322.16 270.214 324.87C273.564 326.28 275.874 328.7 276.554 331.51C276.828 332.747 276.803 334.031 276.483 335.257C276.164 336.482 275.557 337.614 274.714 338.56C272.024 341.78 267.304 343.59 262.544 343.59ZM263.544 323.94C258.904 323.94 254.294 325.7 251.684 328.83C250.874 329.729 250.29 330.809 249.982 331.98C249.675 333.151 249.651 334.378 249.914 335.56C250.564 338.25 252.794 340.56 256.034 341.94C262.314 344.6 270.564 342.94 274.444 338.32C275.254 337.423 275.838 336.344 276.146 335.175C276.454 334.006 276.477 332.78 276.214 331.6C275.554 328.91 273.324 326.6 270.094 325.21C268.01 324.356 265.777 323.924 263.524 323.94H263.544Z" fill="black"/>
<path d="M287.404 320.07C289.564 321.33 289.704 323.28 287.714 324.43C286.529 324.989 285.23 325.263 283.921 325.23C282.612 325.197 281.328 324.858 280.174 324.24C277.994 322.99 277.864 321.04 279.854 319.89C281.038 319.327 282.339 319.05 283.65 319.081C284.961 319.113 286.247 319.451 287.404 320.07Z" fill="black"/>
<path d="M284.234 325.38C282.785 325.407 281.352 325.063 280.074 324.38C279.579 324.158 279.15 323.811 278.831 323.372C278.512 322.934 278.313 322.419 278.254 321.88C278.287 321.415 278.444 320.967 278.71 320.583C278.976 320.199 279.34 319.894 279.764 319.7C280.977 319.124 282.309 318.841 283.652 318.874C284.994 318.907 286.31 319.255 287.494 319.89C287.988 320.114 288.416 320.464 288.733 320.904C289.051 321.344 289.248 321.86 289.304 322.4C289.273 322.864 289.118 323.31 288.854 323.692C288.589 324.074 288.227 324.378 287.804 324.57C286.702 325.14 285.474 325.419 284.234 325.38ZM283.334 319.22C282.158 319.189 280.994 319.461 279.954 320.01C279.588 320.172 279.273 320.429 279.041 320.754C278.808 321.08 278.668 321.462 278.634 321.86C278.694 322.333 278.876 322.783 279.161 323.165C279.447 323.547 279.827 323.849 280.264 324.04C281.391 324.643 282.643 324.974 283.921 325.007C285.199 325.04 286.467 324.774 287.624 324.23C287.986 324.065 288.299 323.807 288.529 323.482C288.759 323.157 288.899 322.777 288.934 322.38C288.875 321.906 288.693 321.456 288.408 321.074C288.122 320.692 287.741 320.391 287.304 320.2C286.082 319.554 284.716 319.23 283.334 319.26V319.22Z" fill="black"/>
<path d="M244.906 344.58C247.066 345.83 247.216 347.78 245.216 348.92C244.034 349.488 242.735 349.767 241.424 349.736C240.114 349.705 238.829 349.363 237.676 348.74C235.496 347.49 235.366 345.53 237.366 344.38C238.55 343.818 239.85 343.543 241.16 343.578C242.47 343.612 243.754 343.956 244.906 344.58Z" fill="black"/>
<path d="M241.734 349.92C240.285 349.947 238.852 349.603 237.574 348.92C237.077 348.697 236.648 348.348 236.329 347.908C236.009 347.467 235.811 346.951 235.754 346.41C235.789 345.946 235.947 345.5 236.213 345.119C236.478 344.737 236.841 344.434 237.264 344.24C238.479 343.664 239.812 343.382 241.156 343.415C242.501 343.448 243.818 343.795 245.004 344.43C245.497 344.656 245.923 345.006 246.241 345.446C246.558 345.886 246.756 346.401 246.814 346.94C246.779 347.404 246.621 347.85 246.355 348.231C246.09 348.613 245.727 348.916 245.304 349.11C244.203 349.681 242.974 349.96 241.734 349.92ZM240.824 343.76C239.653 343.731 238.493 343.999 237.454 344.54C237.089 344.703 236.775 344.961 236.543 345.286C236.311 345.611 236.17 345.992 236.134 346.39C236.192 346.865 236.373 347.317 236.659 347.701C236.945 348.085 237.326 348.388 237.764 348.58C238.889 349.184 240.141 349.515 241.417 349.546C242.694 349.577 243.96 349.308 245.114 348.76C245.479 348.6 245.794 348.345 246.026 348.021C246.258 347.697 246.399 347.317 246.434 346.92C246.376 346.447 246.196 345.998 245.912 345.616C245.628 345.234 245.25 344.932 244.814 344.74C243.589 344.078 242.216 343.741 240.824 343.76Z" fill="black"/>
<path d="M207.914 341.69L212.794 341.58V342.77L281.294 303.28C281.86 303.014 282.481 302.885 283.106 302.902C283.731 302.919 284.344 303.083 284.894 303.38L312.154 319.14L311.874 318.84L316.924 318.18V320.28C316.918 320.494 316.851 320.702 316.731 320.88C316.61 321.057 316.441 321.196 316.244 321.28L243.554 363.18C242.989 363.447 242.369 363.579 241.743 363.563C241.118 363.547 240.505 363.385 239.954 363.09L208.744 345.04C208.521 344.941 208.328 344.784 208.185 344.585C208.043 344.387 207.956 344.153 207.934 343.91L207.914 341.69Z" fill="black"/>
<path d="M208.595 340.79L281.295 298.88C281.862 298.611 282.484 298.479 283.111 298.494C283.738 298.51 284.353 298.673 284.905 298.97L316.105 316.97C317.105 317.57 317.215 318.51 316.255 319.05L243.545 360.97C242.98 361.237 242.36 361.369 241.735 361.353C241.109 361.337 240.497 361.175 239.945 360.88L208.735 342.88C207.675 342.27 207.675 341.38 208.595 340.79Z" fill="#01E46F"/>
<path d="M241.896 361.59C241.196 361.592 240.508 361.417 239.896 361.08L208.686 343.08C208.433 342.962 208.215 342.78 208.054 342.552C207.892 342.324 207.793 342.058 207.766 341.78C207.786 341.543 207.868 341.315 208.003 341.119C208.138 340.922 208.322 340.764 208.536 340.66L281.236 298.75C281.832 298.466 282.486 298.326 283.146 298.342C283.806 298.357 284.454 298.528 285.036 298.84L316.236 316.89C316.49 317.004 316.709 317.184 316.87 317.41C317.032 317.637 317.13 317.903 317.156 318.18C317.141 318.419 317.061 318.649 316.926 318.847C316.79 319.044 316.603 319.201 316.386 319.3L243.676 361.17C243.129 361.464 242.516 361.608 241.896 361.59ZM282.956 298.68C282.411 298.668 281.871 298.791 281.386 299.04L208.676 340.95C208.519 341.021 208.384 341.131 208.282 341.269C208.181 341.407 208.116 341.57 208.096 341.74C208.117 341.957 208.196 342.164 208.324 342.34C208.453 342.515 208.626 342.654 208.826 342.74L240.026 360.74C240.548 361.024 241.13 361.181 241.725 361.197C242.319 361.212 242.909 361.087 243.446 360.83L316.156 318.92C316.312 318.849 316.447 318.739 316.549 318.601C316.651 318.463 316.715 318.3 316.736 318.13C316.711 317.913 316.63 317.706 316.5 317.531C316.37 317.355 316.196 317.217 315.996 317.13L284.796 299.13C284.23 298.826 283.597 298.671 282.956 298.68Z" fill="black"/>
<path d="M219.035 340.02L218.745 339.85C217.795 339.3 217.745 338.42 218.745 337.85L277.215 304.15C277.75 303.879 278.341 303.737 278.94 303.737C279.539 303.737 280.131 303.879 280.665 304.15L280.835 304.26C281.367 304.534 281.957 304.676 282.555 304.676C283.153 304.676 283.743 304.534 284.275 304.26H284.325C284.855 303.991 285.441 303.851 286.035 303.851C286.629 303.851 287.215 303.991 287.745 304.26L306.865 315.38C307.815 315.93 307.865 316.81 306.865 317.38C305.935 317.92 305.945 318.8 306.865 319.38L307.145 319.54C308.145 320.08 308.145 320.97 307.145 321.54L248.655 355.26C248.127 355.524 247.545 355.661 246.955 355.661C246.365 355.661 245.783 355.524 245.255 355.26L244.925 355.07C244.397 354.806 243.815 354.668 243.225 354.668C242.635 354.668 242.053 354.806 241.525 355.07L240.765 355.51C240.235 355.779 239.649 355.919 239.055 355.919C238.461 355.919 237.875 355.779 237.345 355.51L218.285 344.51C217.285 343.96 217.285 343.08 218.225 342.51L219.005 342.06C220.005 341.45 219.985 340.57 219.035 340.02Z" fill="#003401"/>
<path d="M239.175 356.04C238.531 356.055 237.894 355.903 237.325 355.6L218.265 344.6C218.037 344.496 217.84 344.332 217.696 344.127C217.552 343.921 217.465 343.68 217.445 343.43C217.461 343.193 217.54 342.964 217.674 342.767C217.807 342.57 217.991 342.412 218.205 342.31L218.995 341.85C219.153 341.778 219.289 341.667 219.391 341.527C219.493 341.386 219.556 341.222 219.575 341.05C219.551 340.868 219.481 340.695 219.37 340.547C219.26 340.4 219.114 340.284 218.945 340.21L218.655 340.04C218.427 339.936 218.23 339.772 218.086 339.567C217.942 339.361 217.855 339.12 217.835 338.87C217.851 338.629 217.932 338.396 218.07 338.197C218.207 337.999 218.395 337.84 218.615 337.74L277.085 304.04C277.648 303.754 278.269 303.604 278.9 303.604C279.531 303.604 280.153 303.754 280.715 304.04L280.895 304.15C281.398 304.409 281.955 304.544 282.52 304.544C283.086 304.544 283.643 304.409 284.145 304.15H284.195C284.754 303.869 285.37 303.722 285.995 303.722C286.621 303.722 287.237 303.869 287.795 304.15L306.955 315.22C307.184 315.324 307.38 315.488 307.524 315.693C307.669 315.899 307.755 316.14 307.775 316.39C307.758 316.631 307.677 316.863 307.54 317.062C307.403 317.26 307.215 317.419 306.995 317.52C306.575 317.77 306.365 318.05 306.365 318.35C306.387 318.533 306.457 318.707 306.568 318.854C306.678 319.002 306.826 319.118 306.995 319.19L307.275 319.35C307.504 319.452 307.702 319.613 307.848 319.817C307.994 320.021 308.083 320.26 308.105 320.51C308.088 320.753 308.006 320.988 307.867 321.188C307.728 321.389 307.537 321.548 307.315 321.65L248.825 355.38C248.271 355.663 247.658 355.811 247.035 355.811C246.413 355.811 245.799 355.663 245.245 355.38L244.915 355.2C244.418 354.949 243.868 354.818 243.31 354.818C242.753 354.818 242.203 354.949 241.705 355.2L240.945 355.64C240.397 355.916 239.789 356.053 239.175 356.04ZM278.865 303.96C278.311 303.945 277.763 304.076 277.275 304.34L218.805 338.04C218.644 338.109 218.503 338.219 218.398 338.36C218.293 338.5 218.226 338.666 218.205 338.84C218.229 339.024 218.299 339.199 218.409 339.347C218.519 339.496 218.666 339.614 218.835 339.69L219.135 339.85C219.361 339.958 219.556 340.122 219.699 340.327C219.843 340.532 219.931 340.771 219.955 341.02C219.94 341.26 219.861 341.492 219.725 341.691C219.59 341.889 219.403 342.048 219.185 342.15L218.395 342.61C218.239 342.681 218.103 342.791 218.002 342.929C217.9 343.067 217.836 343.23 217.815 343.4C217.839 343.585 217.91 343.761 218.022 343.91C218.134 344.059 218.284 344.176 218.455 344.25L237.515 355.25C238.018 355.504 238.573 355.636 239.135 355.636C239.698 355.636 240.253 355.504 240.755 355.25L241.515 354.81C242.069 354.526 242.683 354.379 243.305 354.379C243.928 354.379 244.541 354.526 245.095 354.81L245.425 355C245.925 355.249 246.477 355.379 247.035 355.379C247.594 355.379 248.145 355.249 248.645 355L307.125 321.38C307.288 321.31 307.429 321.198 307.535 321.056C307.64 320.914 307.706 320.746 307.725 320.57C307.703 320.387 307.633 320.213 307.523 320.066C307.412 319.918 307.265 319.802 307.095 319.73L306.815 319.57C306.586 319.466 306.388 319.303 306.242 319.097C306.096 318.892 306.007 318.651 305.985 318.4C306.004 318.158 306.088 317.926 306.227 317.727C306.365 317.529 306.555 317.371 306.775 317.27C307.185 317.02 307.405 316.74 307.405 316.44C307.381 316.256 307.31 316.082 307.197 315.935C307.085 315.787 306.936 315.672 306.765 315.6L287.605 304.53C287.107 304.274 286.555 304.14 285.995 304.14C285.435 304.14 284.883 304.274 284.385 304.53H284.335C283.772 304.818 283.148 304.968 282.515 304.968C281.883 304.968 281.259 304.818 280.695 304.53L280.525 304.42C280.022 304.124 279.449 303.966 278.865 303.96Z" fill="black"/>
<path d="M277.054 324.14C278.036 325.842 278.453 327.812 278.242 329.766C278.032 331.72 277.206 333.556 275.884 335.01C271.444 340.35 262.384 342.17 255.264 339.17C252.671 338.161 250.481 336.327 249.034 333.95C248.051 332.249 247.633 330.28 247.841 328.326C248.05 326.372 248.874 324.535 250.194 323.08C254.644 317.75 263.694 315.92 270.814 318.92C273.408 319.932 275.6 321.765 277.054 324.14Z" fill="#01E46F"/>
<path d="M262.605 340.8C260.062 340.813 257.543 340.316 255.195 339.34C252.566 338.317 250.345 336.458 248.875 334.05C247.87 332.315 247.442 330.306 247.655 328.312C247.867 326.319 248.707 324.444 250.055 322.96C254.545 317.57 263.695 315.72 270.885 318.75C273.52 319.774 275.744 321.636 277.215 324.05C278.216 325.784 278.641 327.791 278.429 329.782C278.217 331.773 277.379 333.646 276.035 335.13C272.995 338.77 267.845 340.8 262.605 340.8ZM263.475 317.67C258.345 317.67 253.305 319.67 250.345 323.2C249.049 324.626 248.24 326.427 248.033 328.343C247.827 330.258 248.233 332.19 249.195 333.86C250.63 336.198 252.789 338.003 255.345 339C262.345 342 271.345 340.17 275.745 334.89C277.042 333.464 277.851 331.663 278.056 329.746C278.261 327.83 277.851 325.898 276.885 324.23C275.459 321.891 273.301 320.087 270.745 319.1C268.441 318.145 265.969 317.659 263.475 317.67Z" fill="black"/>
<path d="M255.934 337.59C249.574 334.9 247.594 328.9 251.524 324.18C255.454 319.46 263.784 317.82 270.144 320.51C276.504 323.2 278.484 329.19 274.564 333.91C270.644 338.63 262.304 340.27 255.934 337.59Z" fill="#CAFF54"/>
<path d="M262.544 339.06C260.253 339.074 257.983 338.632 255.864 337.76C252.524 336.35 250.214 333.93 249.524 331.12C249.251 329.881 249.276 328.594 249.597 327.367C249.919 326.139 250.528 325.006 251.374 324.06C255.374 319.3 263.794 317.63 270.214 320.33C273.564 321.75 275.874 324.17 276.554 326.98C276.828 328.217 276.803 329.501 276.483 330.727C276.164 331.952 275.557 333.085 274.714 334.03C272.024 337.25 267.304 339.06 262.544 339.06ZM263.544 319.41C258.904 319.41 254.294 321.17 251.684 324.3C250.874 325.199 250.29 326.279 249.982 327.45C249.675 328.621 249.651 329.848 249.914 331.03C250.564 333.72 252.794 336.03 256.034 337.41C262.314 340.06 270.564 338.41 274.444 333.79C275.254 332.893 275.838 331.814 276.146 330.645C276.454 329.476 276.477 328.25 276.214 327.07C275.554 324.38 273.324 322.07 270.094 320.68C268.012 319.815 265.779 319.373 263.524 319.38L263.544 319.41Z" fill="black"/>
<path d="M287.404 315.54C289.564 316.8 289.704 318.75 287.714 319.9C286.529 320.459 285.23 320.733 283.921 320.7C282.612 320.667 281.328 320.328 280.174 319.71C277.994 318.45 277.864 316.5 279.854 315.36C281.038 314.797 282.339 314.52 283.65 314.551C284.961 314.582 286.247 314.921 287.404 315.54Z" fill="black"/>
<path d="M284.234 320.89C282.785 320.917 281.352 320.573 280.074 319.89C279.58 319.667 279.153 319.319 278.834 318.881C278.515 318.442 278.315 317.929 278.254 317.39C278.287 316.925 278.444 316.477 278.71 316.093C278.976 315.709 279.34 315.404 279.764 315.21C280.977 314.634 282.309 314.351 283.652 314.384C284.994 314.417 286.31 314.765 287.494 315.4C287.987 315.626 288.413 315.976 288.731 316.416C289.048 316.856 289.246 317.371 289.304 317.91C289.271 318.373 289.115 318.819 288.851 319.2C288.587 319.582 288.225 319.886 287.804 320.08C286.702 320.65 285.474 320.929 284.234 320.89ZM283.334 314.73C282.158 314.699 280.994 314.971 279.954 315.52C279.594 315.688 279.286 315.949 279.061 316.276C278.836 316.603 278.702 316.984 278.674 317.38C278.734 317.853 278.916 318.303 279.201 318.685C279.487 319.067 279.867 319.369 280.304 319.56C281.429 320.163 282.68 320.494 283.956 320.527C285.233 320.56 286.499 320.294 287.654 319.75C288.018 319.587 288.333 319.329 288.565 319.004C288.797 318.679 288.938 318.298 288.974 317.9C288.915 317.426 288.733 316.976 288.448 316.594C288.162 316.212 287.781 315.911 287.344 315.72C286.115 315.049 284.734 314.708 283.334 314.73Z" fill="black"/>
<path d="M244.906 340.05C247.066 341.3 247.216 343.25 245.216 344.39C244.034 344.958 242.735 345.237 241.424 345.206C240.114 345.175 238.829 344.833 237.676 344.21C235.496 342.95 235.366 341 237.366 339.85C238.55 339.288 239.85 339.013 241.16 339.048C242.47 339.082 243.754 339.426 244.906 340.05Z" fill="#2A0831"/>
<path d="M241.734 345.38C240.285 345.407 238.852 345.063 237.574 344.38C237.079 344.156 236.65 343.806 236.331 343.366C236.012 342.926 235.813 342.41 235.754 341.87C235.789 341.406 235.947 340.96 236.213 340.579C236.478 340.197 236.841 339.894 237.264 339.7C238.479 339.124 239.812 338.842 241.156 338.875C242.501 338.908 243.818 339.255 245.004 339.89C245.497 340.116 245.923 340.466 246.241 340.906C246.558 341.346 246.756 341.861 246.814 342.4C246.779 342.864 246.621 343.31 246.355 343.691C246.09 344.073 245.727 344.376 245.304 344.57C244.202 345.14 242.974 345.419 241.734 345.38ZM240.824 339.22C239.653 339.191 238.493 339.459 237.454 340C237.089 340.163 236.775 340.421 236.543 340.746C236.311 341.071 236.17 341.452 236.134 341.85C236.192 342.325 236.373 342.777 236.659 343.161C236.945 343.545 237.326 343.848 237.764 344.04C238.889 344.644 240.141 344.975 241.417 345.006C242.694 345.037 243.96 344.768 245.114 344.22C245.478 344.059 245.793 343.804 246.025 343.48C246.257 343.156 246.398 342.777 246.434 342.38C246.376 341.907 246.196 341.458 245.912 341.076C245.628 340.694 245.25 340.392 244.814 340.2C243.588 339.543 242.215 339.209 240.824 339.23V339.22Z" fill="black"/>
<path d="M203.915 314.24C205.455 314.907 206.998 315.53 208.545 316.11L208.095 316.94C233.992 316.968 259.5 310.632 282.375 298.49C282.906 298.249 283.488 298.141 284.07 298.176C284.652 298.211 285.217 298.387 285.715 298.69C293.815 304.04 302.565 309.29 311.975 314.32L311.695 314.02C313.415 313.74 315.135 313.433 316.855 313.1L316.945 315.27C316.944 315.489 316.882 315.704 316.766 315.89C316.649 316.075 316.482 316.224 316.285 316.32C290.937 332.297 261.988 341.662 232.085 343.56C230.685 343.565 229.33 343.069 228.265 342.16C219.155 333.68 210.895 325.16 203.405 316.83C203.005 316.39 202.915 316 203.075 315.74C203.355 315.24 203.675 314.74 203.915 314.24Z" fill="black"/>
<path d="M204.895 313.92C232.098 314.265 258.916 307.473 282.675 294.22C283.19 293.975 283.759 293.861 284.33 293.889C284.9 293.917 285.455 294.085 285.945 294.38C295.624 300.765 305.638 306.627 315.945 311.94C317.025 312.49 317.145 313.47 316.175 314.08C291.129 330.19 262.438 339.749 232.735 341.88C231.345 341.894 229.996 341.408 228.935 340.51C220.333 332.503 212.092 324.118 204.235 315.38C203.495 314.55 203.795 313.9 204.895 313.92Z" fill="#01E46F"/>
<path d="M232.515 342.08C231.159 342.026 229.86 341.519 228.825 340.64C220.255 332.64 211.935 324.22 204.095 315.5C203.685 315.04 203.545 314.6 203.705 314.25C203.865 313.9 204.285 313.72 204.905 313.73H206.595C233.196 313.787 259.365 307.01 282.595 294.05C283.14 293.783 283.744 293.657 284.351 293.685C284.957 293.713 285.547 293.894 286.065 294.21C295.744 300.593 305.758 306.452 316.065 311.76C316.329 311.865 316.561 312.037 316.736 312.26C316.912 312.483 317.025 312.749 317.065 313.03C317.06 313.279 316.988 313.522 316.856 313.733C316.724 313.945 316.537 314.116 316.315 314.23C291.239 330.342 262.524 339.911 232.795 342.06L232.515 342.08ZM204.855 314.08C204.435 314.08 204.135 314.19 204.045 314.39C203.955 314.59 204.045 314.9 204.375 315.23C212.205 323.94 220.525 332.39 229.085 340.35C230.105 341.22 231.405 341.689 232.745 341.67C262.414 339.53 291.072 329.982 316.095 313.9C316.259 313.822 316.399 313.701 316.5 313.549C316.6 313.398 316.657 313.222 316.665 313.04C316.637 312.817 316.549 312.606 316.41 312.43C316.271 312.253 316.086 312.119 315.875 312.04C305.572 306.718 295.558 300.853 285.875 294.47C285.415 294.192 284.893 294.032 284.355 294.004C283.818 293.976 283.282 294.081 282.795 294.31C259.002 307.596 232.134 314.397 204.885 314.03L204.855 314.08Z" fill="black"/>
<path d="M215.045 317.38L214.825 317.16C214.115 316.41 214.415 315.78 215.485 315.73C237.412 314.672 258.874 309.027 278.485 299.16C278.994 298.933 279.551 298.835 280.107 298.873C280.663 298.911 281.201 299.085 281.675 299.38L281.835 299.49C282.311 299.785 282.854 299.955 283.414 299.983C283.974 300.011 284.531 299.896 285.035 299.65C285.535 299.407 286.088 299.291 286.645 299.312C287.201 299.333 287.743 299.49 288.225 299.77C294.005 303.503 300.101 307.17 306.515 310.77C306.722 310.843 306.901 310.978 307.028 311.157C307.155 311.336 307.223 311.551 307.223 311.77C307.223 311.99 307.155 312.204 307.028 312.383C306.901 312.562 306.722 312.697 306.515 312.77C305.515 313.34 305.515 314.23 306.515 314.77L306.805 314.93C307.016 314.998 307.201 315.131 307.333 315.311C307.464 315.491 307.534 315.708 307.534 315.93C307.534 316.153 307.464 316.369 307.333 316.549C307.201 316.729 307.016 316.862 306.805 316.93C286.226 328.754 263.471 336.299 239.905 339.11C238.61 339.199 237.328 338.807 236.305 338.01L236.025 337.75C235.011 336.959 233.749 336.555 232.465 336.61L231.525 336.69C230.232 336.733 228.968 336.299 227.975 335.47C222.575 330.403 217.481 325.347 212.695 320.3C211.975 319.54 212.285 318.92 213.355 318.88H214.275C215.465 318.75 215.755 318.11 215.045 317.38Z" fill="#003401"/>
<path d="M239.674 339.27C238.466 339.251 237.298 338.84 236.344 338.1L236.054 337.84C235.077 337.086 233.866 336.7 232.634 336.75L231.704 336.83C230.355 336.881 229.036 336.428 228.004 335.56C222.794 330.67 217.654 325.56 212.724 320.38C212.194 319.82 212.254 319.38 212.334 319.22C212.474 318.87 212.894 318.66 213.504 318.64H214.414C214.864 318.64 215.174 318.49 215.254 318.28C215.334 318.07 215.254 317.82 214.944 317.53L214.724 317.31C214.557 317.175 214.432 316.995 214.363 316.791C214.294 316.588 214.284 316.369 214.334 316.16C214.453 315.959 214.628 315.796 214.837 315.689C215.046 315.583 215.28 315.538 215.514 315.56C237.412 314.477 258.845 308.84 278.444 299.01C278.981 298.766 279.57 298.657 280.16 298.694C280.749 298.731 281.32 298.911 281.824 299.22L281.984 299.33C282.433 299.599 282.942 299.754 283.465 299.78C283.988 299.806 284.51 299.703 284.984 299.48C285.513 299.22 286.099 299.095 286.689 299.116C287.278 299.137 287.854 299.303 288.364 299.6C294.294 303.43 300.444 307.13 306.654 310.6C306.892 310.687 307.099 310.846 307.245 311.054C307.391 311.262 307.469 311.511 307.469 311.765C307.469 312.019 307.391 312.268 307.245 312.476C307.099 312.684 306.892 312.843 306.654 312.93C306.48 313.007 306.329 313.128 306.215 313.28C306.101 313.432 306.028 313.611 306.004 313.8C306.031 313.983 306.105 314.155 306.219 314.301C306.333 314.446 306.483 314.56 306.654 314.63L306.934 314.79C307.164 314.889 307.363 315.048 307.511 315.25C307.658 315.452 307.749 315.691 307.774 315.94C307.758 316.19 307.674 316.431 307.531 316.637C307.388 316.844 307.192 317.007 306.964 317.11C286.371 328.987 263.574 336.544 239.964 339.32C239.866 339.309 239.769 339.292 239.674 339.27ZM232.874 336.38C234.104 336.402 235.294 336.823 236.264 337.58L236.554 337.84C237.531 338.603 238.756 338.98 239.994 338.9C263.542 336.122 286.28 328.582 306.824 316.74C306.996 316.67 307.145 316.553 307.254 316.403C307.364 316.253 307.429 316.075 307.444 315.89C307.422 315.708 307.351 315.535 307.239 315.39C307.126 315.246 306.975 315.135 306.804 315.07L306.514 314.91C306.285 314.81 306.088 314.65 305.942 314.448C305.796 314.246 305.707 314.008 305.684 313.76C305.696 313.51 305.776 313.268 305.915 313.061C306.054 312.853 306.247 312.687 306.474 312.58C306.904 312.32 307.124 312.02 307.114 311.71C307.094 311.526 307.024 311.351 306.911 311.204C306.798 311.058 306.647 310.946 306.474 310.88C300.264 307.42 294.104 303.71 288.174 299.88C287.719 299.621 287.209 299.476 286.686 299.459C286.163 299.442 285.644 299.552 285.174 299.78L285.034 299.64L285.124 299.81C284.588 300.07 283.996 300.19 283.402 300.161C282.807 300.131 282.23 299.952 281.724 299.64L281.564 299.52C281.114 299.252 280.607 299.097 280.084 299.067C279.562 299.038 279.04 299.135 278.564 299.35C258.917 309.2 237.434 314.847 215.484 315.93C215.034 315.93 214.724 316.09 214.634 316.3C214.544 316.51 214.634 316.76 214.944 317.05L215.164 317.27C215.334 317.402 215.462 317.582 215.532 317.786C215.601 317.991 215.609 318.211 215.554 318.42C215.414 318.78 215.004 318.99 214.384 319.02H213.464C213.024 319.02 212.714 319.16 212.624 319.36C212.534 319.56 212.624 319.82 212.944 320.12C217.874 325.3 223.014 330.4 228.204 335.28C229.165 336.07 230.38 336.486 231.624 336.45L232.544 336.37L232.874 336.38Z" fill="black"/>
<path d="M276.026 317.97C277.576 321.45 276.616 325.24 273.226 327.86C267.746 332.17 257.636 331.86 251.106 327.61C248.815 326.286 247.049 324.213 246.106 321.74C245.006 318.33 246.506 315.1 249.886 312.84C255.406 309.24 264.126 308.84 270.606 312.43C272.968 313.637 274.872 315.582 276.026 317.97Z" fill="#01E46F"/>
<path d="M262.903 331.13C258.694 331.16 254.563 329.991 250.993 327.76C248.67 326.398 246.884 324.28 245.933 321.76C244.833 318.34 246.233 315.01 249.793 312.64C255.523 308.9 264.313 308.73 270.703 312.23C273.098 313.456 275.029 315.429 276.203 317.85C277.813 321.48 276.713 325.36 273.333 327.97C270.297 330.139 266.632 331.25 262.903 331.13ZM260.453 310.13C256.767 310.067 253.14 311.063 250.003 313C246.593 315.26 245.243 318.43 246.293 321.69C247.223 324.115 248.956 326.148 251.203 327.45C257.783 331.75 267.813 331.88 273.103 327.72C276.333 325.21 277.393 321.51 275.853 318.04C274.714 315.696 272.843 313.786 270.523 312.6C267.423 310.955 263.963 310.106 260.453 310.13Z" fill="black"/>
<path d="M252.165 326.38C246.315 322.59 246.055 317.21 250.915 314C255.775 310.79 263.915 310.56 269.715 313.77C275.515 316.98 276.865 322.85 272.025 326.63C267.185 330.41 257.995 330.2 252.165 326.38Z" fill="#CAFF54"/>
<path d="M262.796 329.59C259.009 329.62 255.289 328.58 252.066 326.59C249.066 324.59 247.326 322.12 247.316 319.59C247.316 317.42 248.546 315.4 250.816 313.9C255.886 310.58 264.056 310.48 269.816 313.66C272.996 315.42 274.936 318 275.156 320.75C275.212 321.935 274.966 323.114 274.442 324.177C273.917 325.241 273.131 326.154 272.156 326.83C269.422 328.748 266.134 329.717 262.796 329.59ZM260.326 311.69C257.047 311.621 253.816 312.492 251.016 314.2C250.054 314.741 249.244 315.517 248.663 316.456C248.082 317.396 247.75 318.467 247.696 319.57C247.696 321.98 249.326 324.36 252.266 326.26C258.086 330.04 267.266 330.16 271.916 326.52C272.841 325.88 273.589 325.016 274.089 324.009C274.589 323.001 274.826 321.884 274.776 320.76C274.566 318.14 272.686 315.66 269.626 313.97C266.764 312.448 263.568 311.664 260.326 311.69Z" fill="black"/>
<path d="M287.226 310.6C289.226 311.92 289.226 313.84 287.176 314.83C285.96 315.302 284.65 315.483 283.351 315.358C282.052 315.233 280.8 314.805 279.696 314.11C277.696 312.74 277.816 310.9 279.876 309.96C281.071 309.51 282.352 309.335 283.624 309.445C284.896 309.556 286.127 309.951 287.226 310.6Z" fill="black"/>
<path d="M284.284 315.6C282.622 315.618 280.99 315.156 279.584 314.27C279.135 314.031 278.758 313.675 278.492 313.241C278.227 312.807 278.082 312.309 278.074 311.8C278.154 311.343 278.357 310.916 278.659 310.564C278.962 310.212 279.354 309.948 279.794 309.8C281.019 309.333 282.334 309.149 283.64 309.264C284.946 309.378 286.209 309.787 287.334 310.46C287.799 310.697 288.192 311.054 288.473 311.493C288.754 311.933 288.913 312.439 288.934 312.96C288.868 313.422 288.676 313.858 288.38 314.219C288.084 314.581 287.695 314.854 287.254 315.01C286.32 315.425 285.306 315.626 284.284 315.6ZM282.774 309.6C281.807 309.58 280.846 309.764 279.954 310.14C279.575 310.262 279.235 310.485 278.971 310.784C278.707 311.083 278.528 311.448 278.454 311.84C278.469 312.282 278.601 312.712 278.837 313.086C279.072 313.46 279.402 313.765 279.794 313.97C280.875 314.64 282.096 315.052 283.362 315.175C284.627 315.298 285.904 315.129 287.094 314.68C287.472 314.549 287.808 314.318 288.065 314.012C288.322 313.705 288.491 313.335 288.554 312.94C288.529 312.484 288.384 312.043 288.132 311.662C287.881 311.281 287.533 310.973 287.124 310.77C285.812 309.98 284.306 309.571 282.774 309.59V309.6Z" fill="black"/>
<path d="M240.376 325.68C242.196 327.29 241.836 328.94 239.466 329.28C238.107 329.392 236.738 329.235 235.439 328.818C234.14 328.402 232.936 327.733 231.896 326.85C230.096 325.18 230.586 323.65 232.896 323.35C235.594 323.158 238.265 323.99 240.376 325.68Z" fill="#2A0831"/>
<path d="M238.526 329.54C236.047 329.491 233.661 328.59 231.766 326.99C230.836 326.12 230.446 325.24 230.686 324.5C230.926 323.76 231.686 323.32 232.886 323.16C235.632 322.966 238.35 323.816 240.496 325.54C241.496 326.4 241.886 327.3 241.656 328.07C241.426 328.84 240.656 329.3 239.496 329.47C239.175 329.519 238.851 329.542 238.526 329.54ZM233.746 323.54C233.473 323.519 233.199 323.519 232.926 323.54C231.926 323.67 231.226 324.05 231.046 324.62C230.866 325.19 231.196 325.95 232.046 326.72C234.114 328.452 236.777 329.306 239.466 329.1C240.466 328.95 241.156 328.54 241.326 327.96C241.496 327.38 241.126 326.57 240.276 325.83C238.415 324.355 236.121 323.533 233.746 323.49V323.54Z" fill="black"/>
<path d="M228.656 293.63L322.446 348.29L454.346 271.07L362.336 217.66L228.656 293.63Z" fill="url(#paint0_linear_4455_914)" style="mix-blend-mode:multiply"/>
<path d="M230.715 293.41L240.455 299.05V295.21L230.715 289.57V293.41Z" fill="black"/>
<path d="M231.055 289.57L302.155 248.51L311.565 253.94L240.455 295.01L231.055 289.57Z" fill="#FF00FF"/>
<path d="M302.156 248.7L311.226 253.94L240.456 294.82L231.396 289.57L302.156 248.7ZM302.156 248.31L230.676 289.57L240.416 295.21L311.866 253.94L302.116 248.31H302.156Z" fill="black"/>
<path d="M240.453 299.05L311.903 257.78V253.94L240.453 295.21V299.05Z" fill="black"/>
<path d="M240.285 299.38V295.15H240.375L312.075 253.73V257.97L311.995 258.02L240.285 299.38ZM240.625 295.38V298.82L311.735 257.76V254.3L240.625 295.38ZM241.145 287.51L246.665 290.7V287.23L241.145 284.04V287.51Z" fill="black"/>
<path d="M241.484 284.04L302.614 248.74L307.794 251.74L246.664 287.03L241.484 284.04Z" fill="#FF00FF"/>
<path d="M302.615 248.94L307.455 251.74L246.675 286.83L241.835 284.04L302.625 248.94H302.615ZM302.615 248.55L241.145 284.04L246.665 287.22L308.135 251.74L302.615 248.55Z" fill="black"/>
<path d="M246.664 290.7L308.134 255.21V251.74L246.664 287.22V290.7Z" fill="black"/>
<path d="M246.496 290.99V287.13L246.576 287.08L308.306 251.45V255.3L308.216 255.35L246.496 290.99ZM246.836 287.32V290.38L307.966 255.09V252.01L246.836 287.32Z" fill="black"/>
<path d="M240.594 290.88L311.594 249.88L384.044 292.11L313.044 333.11L240.594 290.88Z" fill="#FF00FF"/>
<path d="M311.596 250.08L383.706 292.08L313.046 332.88L240.936 290.88L311.596 250.08ZM311.596 249.69L240.266 290.88L313.046 333.3L384.386 292.11L311.596 249.69Z" fill="black"/>
<path d="M313.396 341.05L240.266 298.93V290.88L313.396 333V341.05ZM262.566 285.13C262.534 285.466 262.414 285.788 262.217 286.062C262.02 286.336 261.754 286.553 261.446 286.69C260.61 287.119 259.685 287.343 258.746 287.343C257.807 287.343 256.881 287.119 256.046 286.69C255.737 286.553 255.471 286.336 255.274 286.062C255.077 285.788 254.957 285.466 254.926 285.13V283.95H262.566V285.13Z" fill="black"/>
<path d="M258.745 286.06C257.833 286.079 256.931 285.866 256.125 285.44C255.827 285.342 255.568 285.152 255.384 284.898C255.2 284.644 255.102 284.338 255.102 284.025C255.102 283.711 255.2 283.406 255.384 283.152C255.568 282.898 255.827 282.708 256.125 282.61C256.936 282.196 257.834 281.98 258.745 281.98C259.656 281.98 260.554 282.196 261.365 282.61C261.663 282.708 261.922 282.898 262.105 283.152C262.289 283.406 262.388 283.711 262.388 284.025C262.388 284.338 262.289 284.644 262.105 284.898C261.922 285.152 261.663 285.342 261.365 285.44C260.558 285.866 259.657 286.079 258.745 286.06Z" fill="black"/>
<path d="M258.747 282.15C259.632 282.133 260.506 282.343 261.287 282.76C261.559 282.841 261.798 283.008 261.968 283.236C262.138 283.464 262.23 283.741 262.23 284.025C262.23 284.309 262.138 284.586 261.968 284.814C261.798 285.042 261.559 285.209 261.287 285.29C260.499 285.681 259.631 285.885 258.752 285.885C257.872 285.885 257.005 285.681 256.217 285.29C255.597 284.92 255.217 284.47 255.267 284.01C255.301 283.735 255.407 283.474 255.573 283.253C255.74 283.032 255.962 282.858 256.217 282.75C256.994 282.332 257.865 282.122 258.747 282.14V282.15ZM258.747 281.82C257.806 281.798 256.875 282.022 256.047 282.47C254.547 283.32 254.547 284.71 256.047 285.59C256.884 286.012 257.809 286.232 258.747 286.232C259.685 286.232 260.609 286.012 261.447 285.59C262.947 284.71 262.947 283.32 261.447 282.47C260.619 282.022 259.688 281.798 258.747 281.82Z" fill="black"/>
<path d="M261.984 283.78C261.956 284.064 261.853 284.336 261.687 284.568C261.52 284.8 261.295 284.983 261.034 285.1C260.324 285.46 259.54 285.648 258.744 285.648C257.948 285.648 257.164 285.46 256.454 285.1C256.193 284.983 255.968 284.8 255.801 284.568C255.634 284.336 255.532 284.064 255.504 283.78V242.38H261.984V283.78Z" fill="#01E46F"/>
<path d="M258.743 285.81C257.914 285.826 257.095 285.629 256.363 285.24C256.084 285.104 255.846 284.898 255.67 284.642C255.495 284.386 255.389 284.089 255.363 283.78V242.2H262.183V283.78C262.159 284.09 262.054 284.388 261.879 284.644C261.703 284.9 261.463 285.106 261.183 285.24C260.434 285.64 259.592 285.836 258.743 285.81ZM255.673 242.54V283.78C255.702 284.033 255.797 284.274 255.948 284.479C256.098 284.685 256.3 284.847 256.533 284.95C257.219 285.295 257.976 285.475 258.743 285.475C259.511 285.475 260.268 285.295 260.953 284.95C261.186 284.846 261.387 284.684 261.538 284.479C261.689 284.273 261.783 284.033 261.813 283.78V242.54H255.673Z" fill="black"/>
<path d="M256.456 241.04C257.166 240.68 257.951 240.492 258.746 240.492C259.542 240.492 260.327 240.68 261.036 241.04C262.296 241.76 262.296 242.95 261.036 243.69C260.325 244.045 259.541 244.23 258.746 244.23C257.952 244.23 257.168 244.045 256.456 243.69C255.186 242.95 255.186 241.76 256.456 241.04Z" fill="black"/>
<path d="M283.423 273.08C283.392 273.416 283.272 273.738 283.075 274.012C282.878 274.286 282.612 274.503 282.303 274.64C281.468 275.069 280.543 275.293 279.603 275.293C278.664 275.293 277.739 275.069 276.903 274.64C276.594 274.503 276.326 274.287 276.127 274.013C275.929 273.739 275.807 273.417 275.773 273.08V271.9H283.423V273.08Z" fill="black"/>
<path d="M279.604 274.01C278.693 274.029 277.791 273.816 276.984 273.39C276.71 273.259 276.473 273.06 276.298 272.811C276.123 272.562 276.015 272.273 275.984 271.97C276.013 271.668 276.12 271.379 276.296 271.131C276.471 270.884 276.709 270.687 276.984 270.56C277.796 270.146 278.693 269.93 279.604 269.93C280.515 269.93 281.413 270.146 282.224 270.56C282.522 270.658 282.781 270.848 282.965 271.102C283.149 271.356 283.248 271.662 283.248 271.975C283.248 272.289 283.149 272.594 282.965 272.848C282.781 273.102 282.522 273.292 282.224 273.39C281.418 273.816 280.516 274.029 279.604 274.01Z" fill="black"/>
<path d="M279.606 270.1C280.487 270.079 281.359 270.286 282.136 270.7C282.413 270.778 282.656 270.945 282.829 271.174C283.003 271.403 283.096 271.683 283.096 271.97C283.096 272.257 283.003 272.537 282.829 272.766C282.656 272.995 282.413 273.162 282.136 273.24C281.351 273.635 280.485 273.84 279.606 273.84C278.728 273.84 277.861 273.635 277.076 273.24C276.8 273.162 276.556 272.995 276.383 272.766C276.21 272.537 276.116 272.257 276.116 271.97C276.116 271.683 276.21 271.403 276.383 271.174C276.556 270.945 276.8 270.778 277.076 270.7C277.854 270.286 278.725 270.079 279.606 270.1ZM279.606 269.76C278.665 269.742 277.736 269.966 276.906 270.41C275.406 271.27 275.406 272.67 276.906 273.53C277.742 273.957 278.667 274.18 279.606 274.18C280.545 274.18 281.47 273.957 282.306 273.53C283.806 272.67 283.806 271.27 282.306 270.41C281.477 269.966 280.547 269.742 279.606 269.76Z" fill="black"/>
<path d="M282.843 271.72C282.818 272.005 282.717 272.278 282.55 272.511C282.383 272.743 282.156 272.926 281.893 273.04C281.182 273.4 280.396 273.588 279.598 273.588C278.801 273.588 278.015 273.4 277.303 273.04C277.043 272.925 276.818 272.741 276.652 272.509C276.487 272.277 276.387 272.004 276.363 271.72V230.31H282.843V271.72Z" fill="black"/>
<path d="M279.607 273.75C278.778 273.766 277.958 273.57 277.227 273.18C276.945 273.048 276.703 272.843 276.527 272.587C276.351 272.33 276.247 272.031 276.227 271.72V230.14H283.047V271.72C283.026 272.031 282.922 272.33 282.746 272.587C282.57 272.843 282.329 273.048 282.047 273.18C281.297 273.58 280.456 273.776 279.607 273.75ZM276.537 230.48V271.72C276.562 271.974 276.656 272.217 276.807 272.422C276.958 272.628 277.162 272.79 277.397 272.89C278.081 273.24 278.838 273.423 279.607 273.423C280.375 273.423 281.133 273.24 281.817 272.89C282.051 272.79 282.255 272.628 282.406 272.422C282.557 272.217 282.651 271.974 282.677 271.72V230.48H276.537Z" fill="black"/>
<path d="M277.304 228.99C278.014 228.623 278.801 228.432 279.599 228.432C280.398 228.432 281.185 228.623 281.894 228.99C283.164 229.71 283.164 230.9 281.894 231.63C281.184 231.993 280.397 232.182 279.599 232.182C278.802 232.182 278.015 231.993 277.304 231.63C276.044 230.9 276.044 229.71 277.304 228.99Z" fill="black"/>
<path d="M304.724 260.78C304.693 261.116 304.573 261.438 304.376 261.712C304.179 261.986 303.913 262.203 303.604 262.34C302.767 262.769 301.84 262.993 300.899 262.993C299.959 262.993 299.031 262.769 298.194 262.34C297.887 262.201 297.622 261.984 297.425 261.71C297.229 261.436 297.108 261.115 297.074 260.78V259.6H304.724V260.78Z" fill="black"/>
<path d="M300.905 261.72C299.992 261.741 299.089 261.524 298.285 261.09C298.007 260.964 297.767 260.766 297.591 260.516C297.416 260.267 297.31 259.974 297.285 259.67C297.315 259.368 297.422 259.079 297.598 258.832C297.773 258.585 298.01 258.388 298.285 258.26C299.096 257.846 299.994 257.63 300.905 257.63C301.816 257.63 302.714 257.846 303.525 258.26C303.8 258.388 304.037 258.585 304.213 258.832C304.388 259.079 304.496 259.368 304.525 259.67C304.5 259.974 304.395 260.267 304.219 260.516C304.043 260.766 303.803 260.964 303.525 261.09C302.721 261.524 301.818 261.741 300.905 261.72Z" fill="black"/>
<path d="M300.906 257.8C301.787 257.782 302.659 257.992 303.436 258.41C303.701 258.509 303.934 258.679 304.111 258.901C304.287 259.123 304.399 259.389 304.436 259.67C304.403 259.954 304.292 260.222 304.116 260.447C303.939 260.671 303.704 260.842 303.436 260.94C302.659 261.358 301.787 261.568 300.906 261.55C300.025 261.566 299.155 261.36 298.376 260.95C298.119 260.839 297.895 260.662 297.729 260.438C297.562 260.213 297.457 259.948 297.426 259.67C297.458 259.394 297.563 259.132 297.73 258.911C297.897 258.69 298.12 258.517 298.376 258.41C299.152 257.992 300.024 257.782 300.906 257.8ZM300.906 257.46C299.96 257.442 299.027 257.67 298.196 258.12C296.706 258.98 296.706 260.37 298.196 261.24C299.029 261.683 299.962 261.906 300.906 261.89C301.846 261.908 302.776 261.684 303.606 261.24C305.106 260.37 305.106 258.98 303.606 258.12C302.779 257.668 301.848 257.441 300.906 257.46Z" fill="black"/>
<path d="M304.144 259.43C304.116 259.713 304.014 259.984 303.847 260.214C303.68 260.444 303.455 260.626 303.194 260.74C302.485 261.107 301.698 261.298 300.899 261.298C300.1 261.298 299.314 261.107 298.604 260.74C298.345 260.625 298.121 260.443 297.956 260.213C297.79 259.983 297.69 259.712 297.664 259.43V218.01H304.144V259.43Z" fill="black"/>
<path d="M300.903 261.46C300.074 261.477 299.255 261.281 298.523 260.89C298.241 260.758 298 260.553 297.824 260.297C297.648 260.04 297.544 259.741 297.523 259.43V217.84H304.343V259.43C304.32 259.74 304.215 260.038 304.039 260.294C303.863 260.55 303.624 260.756 303.343 260.89C302.594 261.29 301.753 261.486 300.903 261.46ZM297.833 218.18V259.43C297.86 259.684 297.954 259.926 298.105 260.131C298.256 260.337 298.459 260.499 298.693 260.6C299.377 260.95 300.135 261.133 300.903 261.133C301.672 261.133 302.429 260.95 303.113 260.6C303.346 260.496 303.547 260.334 303.698 260.129C303.849 259.923 303.944 259.683 303.973 259.43V218.18H297.833Z" fill="black"/>
<path d="M298.605 216.69C299.317 216.33 300.103 216.142 300.9 216.142C301.698 216.142 302.484 216.33 303.195 216.69C304.465 217.41 304.465 218.6 303.195 219.34C302.484 219.7 301.698 219.888 300.9 219.888C300.103 219.888 299.317 219.7 298.605 219.34C297.345 218.6 297.345 217.38 298.605 216.69Z" fill="black"/>
<path d="M249.076 246.02L238.656 240.01V234.76L249.076 240.77V246.02Z" fill="black"/>
<path d="M249.074 246.02L311.394 210.04V205.45L249.074 241.43V246.02Z" fill="black"/>
<path d="M248.906 246.32V241.32H248.986L311.566 205.19V210.19H311.486L248.906 246.32ZM249.246 241.53V245.73L311.246 209.94V205.75L249.246 241.53Z" fill="black"/>
<path d="M317.204 202.4L307.614 196.86L270.234 192.98L283.004 201.84L317.204 202.4Z" fill="#CAFF54"/>
<path d="M317.854 202.58L282.944 202.01L269.594 192.74L307.704 196.74L317.854 202.58ZM283.054 201.67L316.554 202.21L307.554 197.02L270.874 193.21L283.054 201.67Z" fill="black"/>
<path d="M232.855 240.02L242.445 245.55L281.615 200.69L279.825 198.51L270.235 192.98L232.855 240.02Z" fill="#CAFF54"/>
<path d="M242.485 245.77L232.605 240.06L232.725 239.91L270.195 192.76L279.955 198.38L281.835 200.68L281.745 200.79L242.485 245.77ZM233.115 239.97L242.405 245.34L281.405 200.69L279.725 198.69L270.285 193.25L233.115 239.97Z" fill="black"/>
<path d="M242.445 245.55L317.205 202.4L279.825 198.51L242.445 245.55Z" fill="black"/>
<path d="M241.754 246.15L279.754 198.33L317.754 202.33L317.294 202.59L241.754 246.15ZM279.904 198.68L243.134 244.96L316.674 202.51L279.904 198.68Z" fill="black"/>
<path d="M313.574 333.2L384.564 292.2V299.87L313.574 340.86V333.2Z" fill="#FF00FF"/>
<path d="M384.396 292.5V299.77L313.746 340.56V333.29L384.396 292.5ZM384.736 291.91L313.406 333.1V341.15L384.736 299.97V291.91Z" fill="black"/>
<path d="M313.266 341L323.016 346.64V342.8L313.266 337.16V341Z" fill="black"/>
<path d="M313.605 337.16L384.715 296.09L394.115 301.53L323.015 342.6L313.605 337.16Z" fill="#2A0831"/>
<path d="M384.677 296.29L393.737 301.53L323.017 342.38L313.947 337.13L384.677 296.29ZM384.677 295.9L313.227 337.16L322.977 342.8L394.427 301.53L384.677 295.9Z" fill="black"/>
<path d="M323.184 342.9L394.294 301.82V305.27L323.184 346.34V342.9Z" fill="#FF00FF"/>
<path d="M394.115 302.12V305.12L323.355 346V342.94L394.115 302.07V302.12ZM394.465 301.53L323.015 342.8V346.64L394.465 305.38V301.54V301.53ZM317.465 334.22L322.985 337.41V333.94L317.465 330.75V334.22Z" fill="black"/>
<path d="M317.477 330.56L378.607 295.25L384.117 298.45L322.987 333.74L317.477 330.56Z" fill="#2A0831"/>
<path d="M378.607 295.45L383.777 298.45L322.987 333.54L317.817 330.54L378.607 295.43V295.45ZM378.607 295.05L317.137 330.56L322.987 333.93L384.457 298.45L378.607 295.05Z" fill="black"/>
<path d="M323.156 334.03L384.286 298.74V301.82L323.156 337.11V334.03Z" fill="#FF00FF"/>
<path d="M384.114 299.04V301.72L323.324 336.82V334.13L384.114 299.04ZM384.454 298.45L322.984 333.93V337.38L384.454 301.88V298.42V298.45Z" fill="black"/>
<path d="M317.124 202.39L378.964 238.32L341.574 234.44L279.844 198.42L317.124 202.39Z" fill="#CAFF54"/>
<path d="M379.724 238.58L341.494 234.58L279.074 198.17L317.214 202.24L379.724 238.58ZM341.674 234.28L378.234 238.07L317.074 202.55L280.614 198.68L341.674 234.28ZM331.244 321.08C331.215 321.417 331.096 321.739 330.898 322.014C330.701 322.288 330.434 322.505 330.124 322.64C329.287 323.069 328.36 323.293 327.419 323.293C326.479 323.293 325.551 323.069 324.714 322.64C324.406 322.503 324.139 322.286 323.943 322.012C323.746 321.738 323.626 321.416 323.594 321.08V319.91H331.244V321.08Z" fill="black"/>
<path d="M327.425 322.02C326.513 322.042 325.61 321.828 324.805 321.4C324.529 321.268 324.291 321.067 324.116 320.817C323.941 320.566 323.834 320.274 323.805 319.97C323.835 319.67 323.943 319.382 324.118 319.137C324.294 318.891 324.53 318.696 324.805 318.57C325.614 318.156 326.51 317.94 327.42 317.94C328.329 317.94 329.225 318.156 330.035 318.57C330.309 318.696 330.546 318.891 330.721 319.137C330.896 319.382 331.005 319.67 331.035 319.97C331.006 320.274 330.898 320.566 330.723 320.817C330.548 321.067 330.311 321.268 330.035 321.4C329.232 321.827 328.333 322.041 327.425 322.02Z" fill="black"/>
<path d="M327.426 318.11C328.308 318.092 329.179 318.302 329.956 318.72C330.21 318.827 330.432 318.998 330.599 319.218C330.765 319.437 330.871 319.697 330.906 319.97C330.872 320.247 330.767 320.511 330.601 320.736C330.434 320.96 330.212 321.137 329.956 321.25C329.178 321.664 328.307 321.871 327.426 321.85C326.545 321.874 325.673 321.667 324.896 321.25C324.63 321.145 324.397 320.971 324.222 320.746C324.046 320.521 323.933 320.253 323.896 319.97C323.935 319.691 324.049 319.428 324.225 319.208C324.401 318.988 324.633 318.819 324.896 318.72C325.676 318.301 326.551 318.091 327.436 318.11H327.426ZM327.426 317.77C326.472 317.734 325.525 317.944 324.676 318.38C323.186 319.24 323.186 320.63 324.676 321.5C325.515 321.924 326.441 322.144 327.381 322.144C328.321 322.144 329.247 321.924 330.086 321.5C331.576 320.63 331.576 319.24 330.086 318.38C329.256 317.938 328.327 317.715 327.386 317.73L327.426 317.77Z" fill="black"/>
<path d="M330.675 319.73C330.644 320.02 330.535 320.297 330.359 320.53C330.182 320.762 329.946 320.942 329.675 321.05C328.963 321.41 328.177 321.598 327.38 321.598C326.582 321.598 325.796 321.41 325.085 321.05C324.825 320.934 324.6 320.75 324.435 320.518C324.27 320.286 324.17 320.014 324.145 319.73V278.32H330.675V319.73Z" fill="#01E46F"/>
<path d="M327.417 321.77C326.591 321.787 325.775 321.591 325.047 321.2C324.765 321.065 324.525 320.858 324.349 320.6C324.173 320.342 324.069 320.041 324.047 319.73V278.15H330.867V319.73C330.844 320.041 330.739 320.341 330.564 320.599C330.388 320.857 330.148 321.064 329.867 321.2C329.115 321.604 328.27 321.8 327.417 321.77ZM324.357 278.49V319.73C324.385 319.985 324.479 320.227 324.63 320.434C324.781 320.641 324.983 320.805 325.217 320.91C325.901 321.255 326.656 321.435 327.422 321.435C328.188 321.435 328.943 321.255 329.627 320.91C329.862 320.806 330.066 320.642 330.218 320.435C330.371 320.228 330.467 319.985 330.497 319.73V278.49H324.357Z" fill="black"/>
<path d="M325.125 276.99C325.836 276.63 326.622 276.442 327.42 276.442C328.217 276.442 329.003 276.63 329.715 276.99C330.975 277.72 330.975 278.9 329.715 279.64C329.003 280 328.217 280.188 327.42 280.188C326.622 280.188 325.836 280 325.125 279.64C323.865 278.9 323.865 277.72 325.125 276.99Z" fill="black"/>
<path d="M352.103 309.03C352.072 309.366 351.952 309.688 351.755 309.962C351.558 310.236 351.292 310.453 350.983 310.59C350.146 311.019 349.219 311.243 348.278 311.243C347.337 311.243 346.41 311.019 345.573 310.59C345.265 310.453 344.998 310.236 344.802 309.962C344.605 309.688 344.484 309.366 344.453 309.03V307.86H352.103V309.03Z" fill="black"/>
<path d="M348.275 309.97C347.372 310.003 346.476 309.799 345.675 309.38C345.372 309.287 345.107 309.1 344.919 308.845C344.731 308.59 344.629 308.282 344.629 307.965C344.629 307.648 344.731 307.34 344.919 307.085C345.107 306.83 345.372 306.643 345.675 306.55C346.486 306.142 347.382 305.929 348.29 305.929C349.198 305.929 350.094 306.142 350.905 306.55C351.208 306.643 351.473 306.83 351.661 307.085C351.85 307.34 351.951 307.648 351.951 307.965C351.951 308.282 351.85 308.59 351.661 308.845C351.473 309.1 351.208 309.287 350.905 309.38C350.095 309.803 349.188 310.006 348.275 309.97Z" fill="black"/>
<path d="M348.274 306.06C349.158 306.038 350.033 306.244 350.814 306.66C351.078 306.761 351.311 306.932 351.487 307.153C351.662 307.375 351.776 307.64 351.814 307.92C351.776 308.203 351.663 308.47 351.487 308.695C351.312 308.92 351.079 309.094 350.814 309.2C350.027 309.594 349.159 309.799 348.279 309.799C347.399 309.799 346.531 309.594 345.744 309.2C345.488 309.087 345.266 308.91 345.1 308.686C344.933 308.461 344.828 308.197 344.794 307.92C344.828 307.645 344.934 307.384 345.101 307.163C345.267 306.942 345.489 306.768 345.744 306.66C346.522 306.246 347.393 306.039 348.274 306.06ZM348.274 305.72C347.335 305.701 346.406 305.921 345.574 306.36C344.074 307.23 344.074 308.62 345.574 309.49C346.413 309.914 347.34 310.134 348.279 310.134C349.219 310.134 350.145 309.914 350.984 309.49C352.474 308.62 352.474 307.23 350.984 306.36C350.15 305.921 349.217 305.7 348.274 305.72Z" fill="black"/>
<path d="M351.525 307.68C351.499 307.963 351.396 308.234 351.229 308.465C351.062 308.695 350.836 308.877 350.575 308.99C349.866 309.357 349.079 309.548 348.28 309.548C347.482 309.548 346.695 309.357 345.985 308.99C345.724 308.877 345.498 308.695 345.331 308.465C345.164 308.234 345.062 307.963 345.035 307.68V266.27H351.525V307.68Z" fill="#01E46F"/>
<path d="M348.275 309.71C347.446 309.726 346.626 309.529 345.895 309.14C345.613 309.007 345.372 308.802 345.196 308.546C345.021 308.289 344.916 307.99 344.895 307.68V266.1H351.675V307.68C351.653 307.99 351.548 308.289 351.373 308.546C351.197 308.802 350.956 309.007 350.675 309.14C349.938 309.535 349.11 309.731 348.275 309.71ZM345.205 266.44V307.68C345.231 307.933 345.325 308.173 345.476 308.377C345.627 308.581 345.831 308.741 346.065 308.84C346.749 309.19 347.506 309.373 348.275 309.373C349.043 309.373 349.8 309.19 350.485 308.84C350.72 308.742 350.924 308.582 351.077 308.378C351.23 308.174 351.326 307.933 351.355 307.68V266.44H345.205Z" fill="black"/>
<path d="M345.984 264.95C346.694 264.583 347.48 264.392 348.279 264.392C349.078 264.392 349.865 264.583 350.574 264.95C351.834 265.67 351.834 266.85 350.574 267.59C349.863 267.95 349.076 268.138 348.279 268.138C347.482 268.138 346.695 267.95 345.984 267.59C344.724 266.85 344.724 265.67 345.984 264.95Z" fill="black"/>
<path d="M373.404 296.74C373.373 297.076 373.252 297.398 373.056 297.672C372.859 297.946 372.592 298.163 372.284 298.3C371.445 298.724 370.519 298.944 369.579 298.944C368.639 298.944 367.713 298.724 366.874 298.3C366.566 298.163 366.299 297.946 366.102 297.672C365.905 297.398 365.785 297.076 365.754 296.74V295.56H373.404V296.74Z" fill="black"/>
<path d="M369.577 297.67C368.665 297.689 367.763 297.476 366.957 297.05C366.659 296.952 366.4 296.762 366.216 296.508C366.032 296.254 365.934 295.948 365.934 295.635C365.934 295.321 366.032 295.016 366.216 294.762C366.4 294.508 366.659 294.318 366.957 294.22C367.768 293.806 368.666 293.59 369.577 293.59C370.488 293.59 371.386 293.806 372.197 294.22C372.5 294.313 372.765 294.5 372.953 294.755C373.141 295.01 373.243 295.318 373.243 295.635C373.243 295.952 373.141 296.26 372.953 296.515C372.765 296.77 372.5 296.957 372.197 297.05C371.391 297.477 370.489 297.69 369.577 297.67Z" fill="black"/>
<path d="M369.575 293.76C370.461 293.737 371.337 293.947 372.115 294.37C372.388 294.451 372.627 294.618 372.797 294.846C372.966 295.074 373.058 295.351 373.058 295.635C373.058 295.919 372.966 296.196 372.797 296.424C372.627 296.652 372.388 296.819 372.115 296.9C371.328 297.294 370.46 297.499 369.58 297.499C368.7 297.499 367.832 297.294 367.045 296.9C366.789 296.791 366.566 296.616 366.399 296.393C366.233 296.17 366.128 295.907 366.095 295.63C366.131 295.354 366.237 295.093 366.403 294.87C366.57 294.647 366.791 294.472 367.045 294.36C367.823 293.946 368.694 293.739 369.575 293.76ZM369.575 293.42C368.635 293.404 367.705 293.627 366.875 294.07C365.385 294.93 365.385 296.33 366.875 297.2C367.714 297.624 368.641 297.844 369.58 297.844C370.52 297.844 371.447 297.624 372.285 297.2C373.775 296.33 373.775 294.93 372.285 294.07C371.452 293.627 370.519 293.404 369.575 293.42Z" fill="black"/>
<path d="M372.826 295.38C372.8 295.665 372.698 295.938 372.531 296.17C372.364 296.402 372.138 296.585 371.876 296.7C371.166 297.067 370.38 297.258 369.581 297.258C368.782 297.258 367.995 297.067 367.286 296.7C367.024 296.585 366.798 296.402 366.631 296.17C366.464 295.938 366.362 295.665 366.336 295.38V253.97H372.826V295.38Z" fill="#01E46F"/>
<path d="M369.575 297.38C368.746 297.396 367.927 297.2 367.195 296.81C366.913 296.676 366.672 296.469 366.496 296.211C366.32 295.952 366.217 295.652 366.195 295.34V253.8H373.025V295.38C373.002 295.691 372.897 295.991 372.722 296.249C372.546 296.507 372.306 296.714 372.025 296.85C371.269 297.239 370.424 297.422 369.575 297.38ZM366.505 254.1V295.38C366.533 295.633 366.627 295.875 366.778 296.08C366.929 296.286 367.132 296.448 367.365 296.55C368.049 296.9 368.807 297.083 369.575 297.083C370.344 297.083 371.101 296.9 371.785 296.55C372.024 296.451 372.232 296.291 372.388 296.085C372.545 295.88 372.644 295.636 372.675 295.38V254.14L366.505 254.1Z" fill="black"/>
<path d="M367.285 252.65C367.994 252.283 368.781 252.092 369.58 252.092C370.378 252.092 371.165 252.283 371.875 252.65C373.135 253.37 373.135 254.56 371.875 255.29C371.163 255.65 370.377 255.838 369.58 255.838C368.782 255.838 367.996 255.65 367.285 255.29C366.015 254.56 366.015 253.38 367.285 252.65Z" fill="black"/>
<path d="M320.414 287.49L310.004 281.48V276.22L320.414 282.23V287.49Z" fill="black"/>
<path d="M320.586 283L382.576 247.21V251.41L320.586 287.19V283Z" fill="#CAFF54"/>
<path d="M382.404 247.5V251.31L320.754 286.9V283.1L382.404 247.5ZM382.744 246.92L320.414 282.92V287.51L382.744 251.51V246.92Z" fill="black"/>
<path d="M388.544 243.86L378.964 238.32L341.574 234.44L354.344 243.31L388.544 243.86Z" fill="#CAFF54"/>
<path d="M389.204 244.04L354.294 243.48L340.934 234.2L379.044 238.2L389.204 244.04ZM354.404 243.14L387.894 243.68L378.894 238.49L342.204 234.68L354.404 243.14Z" fill="black"/>
<path d="M304.203 281.48L313.793 287.02L352.953 242.16L351.173 239.97L341.573 234.44L304.203 281.48Z" fill="#CAFF54"/>
<path d="M313.825 287.24L303.945 281.53L304.065 281.37L341.535 234.22L351.305 239.86L353.185 242.16L353.085 242.27L313.825 287.24ZM304.455 281.43L313.755 286.8L352.755 242.16L351.075 240.1L341.675 234.66L304.455 281.43Z" fill="black"/>
<path d="M313.797 287.02L388.547 243.86L351.177 239.97L313.797 287.02Z" fill="#003401"/>
<path d="M313.105 287.61L351.105 239.79L389.105 243.79L388.655 244.06L313.105 287.61ZM351.245 240.15L314.475 286.38L388.005 243.93L351.245 240.15Z" fill="black"/>
<path d="M329.805 272.14L374.485 246.34L372.475 246.13L331.805 269.61L329.805 272.14Z" fill="black"/>
<path d="M352.216 244.19L371.936 246.25L332.496 269.02L352.216 244.19Z" fill="#CAFF54"/>
<path d="M352.295 244.38L371.395 246.38L333.185 268.38L352.295 244.38ZM352.145 244.03L331.805 269.62L372.475 246.15L352.145 244.03Z" fill="black"/>
<path d="M242 245.03L279.37 198L341.1 234.02L303.73 281.06L242 245.03Z" fill="#CAFF54"/>
<path d="M304.257 281.71L304.127 281.63L242.227 245.5L242.347 245.35L279.807 198.2L279.927 198.28L341.837 234.38L341.717 234.54L304.257 281.71ZM242.737 245.38L304.167 281.23L341.327 234.46L279.887 198.65L242.737 245.38Z" fill="black"/>
<path d="M273.344 284.11C279.774 291.81 289.474 287.56 291.654 286.36C293.834 285.16 303.504 279.91 303.504 279.91L266.804 258.25C266.762 258.223 266.714 258.209 266.664 258.209C266.614 258.209 266.566 258.223 266.524 258.25C266.524 258.25 265.674 274.91 273.344 284.11Z" fill="black"/>
<path d="M297.674 197.86C294.602 201.835 290.693 205.086 286.224 207.38C282.394 209.49 255.554 224.38 253.294 225.6C235.424 234.98 235.684 259.73 243.094 265.2L276.674 286.98C267.044 280.81 265.454 261.98 288.054 249.79C295.204 245.95 323.734 230.1 327.804 225.87C331.874 221.64 335.804 215.87 337.564 210.57C339.324 205.27 340.874 198.01 337.984 193.63C335.094 189.25 331.724 187.05 323.984 190.08L303.844 184.58C303.844 184.58 301.144 193.18 297.674 197.86Z" fill="#6A0DAD"/>
<path d="M276.514 287.24L276.414 287.18L242.924 265.5C239.494 262.98 237.574 256.5 238.114 249.36C238.914 238.86 244.534 229.88 253.114 225.36C254.604 224.58 267.024 217.69 276.114 212.66L286.114 207.15C290.531 204.854 294.392 201.619 297.424 197.67C300.864 193.09 303.534 184.57 303.564 184.48L303.654 184.19L323.984 189.75C331.834 186.75 335.384 189.04 338.294 193.45C341.204 197.86 339.714 205.27 337.914 210.67C335.76 216.445 332.41 221.7 328.084 226.09C323.824 230.51 293.954 247 288.254 250.09C277.254 256.01 270.714 264.43 270.374 273.2C270.198 275.808 270.698 278.418 271.824 280.777C272.95 283.137 274.665 285.166 276.804 286.67L276.894 286.73L276.514 287.24ZM297.894 198.05C294.808 202.073 290.875 205.368 286.374 207.7L276.434 213.21C267.364 218.21 254.944 225.14 253.434 225.92C245.014 230.34 239.524 239.12 238.734 249.41C238.204 256.33 240.034 262.59 243.274 264.98L273.354 284.45C270.781 281.267 269.471 277.248 269.674 273.16C270.024 264.16 276.674 255.54 287.894 249.51C296.754 244.75 323.724 229.63 327.564 225.65C331.934 221.12 335.654 215.3 337.254 210.47C339.004 205.2 340.504 198.04 337.704 193.8C334.904 189.56 331.674 187.43 324.074 190.38H323.884L304.034 184.95C303.534 186.5 301.034 193.86 297.894 198.04V198.05Z" fill="black"/>
<path d="M300.845 192.09C304.675 197.71 310.755 197.44 315.975 194.64C316.265 194.48 324.285 189.96 326.675 189.27C329.439 188.494 332.396 188.82 334.925 190.18L297.925 168.84C297.925 168.84 292.115 165.59 287.425 168.11L283.555 170.19C283.555 170.19 297.815 187.63 300.845 192.09Z" fill="black"/>
<path d="M304.674 195.51L268.854 172.56C266.494 170.752 264.936 168.092 264.514 165.15C263.804 160.15 265.164 131.54 265.164 131.54L300.114 151.8C300.114 151.8 298.604 183.97 298.974 187.05C299.217 188.801 299.857 190.473 300.845 191.94C301.833 193.406 303.142 194.627 304.674 195.51Z" fill="#6A0DAD"/>
<path d="M304.483 195.79C304.134 195.602 303.8 195.388 303.483 195.15L268.673 172.83C266.225 170.982 264.61 168.238 264.183 165.2C263.483 160.27 264.783 132.7 264.843 131.53V131L300.413 151.62V151.81C300.413 152.14 298.903 183.99 299.273 187.01C299.479 188.546 300 190.023 300.804 191.348C301.608 192.673 302.676 193.817 303.943 194.71L304.783 195.24L304.483 195.79ZM265.483 132.08C265.303 135.98 264.203 160.61 264.843 165.08C265.264 167.931 266.773 170.507 269.053 172.27L301.113 192.83C299.776 191.184 298.931 189.195 298.673 187.09C298.313 184.09 299.673 154.9 299.803 151.98L265.483 132.08ZM290.083 229.37L288.343 230.3L286.083 228.91L287.823 227.97L290.083 229.37ZM280.453 227.17L278.713 228.1L270.033 222.85L271.773 221.91L280.453 227.17ZM283.053 232.89L281.313 233.82L266.483 224.75L268.223 223.82L283.053 232.89ZM286.223 226.98L284.483 227.92L271.383 219.92L273.123 218.99L286.223 226.98ZM286.613 230.98L284.873 231.91L280.563 229.25L282.303 228.32L286.613 230.98ZM305.663 217.82L307.403 216.88L310.053 218.52L308.313 219.46L305.663 217.82ZM296.473 212.24L298.213 211.31L305.233 215.54L303.493 216.47L296.473 212.24ZM290.333 212.19L292.073 211.26L306.673 220.19L304.933 221.12L290.333 212.19ZM291.663 222.33L289.923 223.26L280.443 217.5L282.183 216.57L291.663 222.33ZM296.913 225.58L295.173 226.51L292.533 224.87L294.263 223.94L296.913 225.58ZM300.163 223.83L298.423 224.77L293.383 221.64L295.123 220.71L300.163 223.83ZM293.083 219.45L291.353 220.38L283.693 215.76L285.433 214.82L293.083 219.45ZM311.903 211.45L310.173 212.39L300.683 206.63L302.423 205.7L311.903 211.45ZM317.163 214.71L315.423 215.64L312.773 214L314.513 213.07L317.163 214.71ZM320.413 212.96L318.673 213.89L313.623 210.77L315.363 209.84L320.413 212.96ZM313.333 208.58L311.593 209.51L303.933 204.89L305.673 203.95L313.333 208.58Z" fill="black"/>
<path d="M293.816 168.81L293.756 170.78L291.496 169.38L291.556 167.41L293.816 168.81ZM287.326 168.54L287.266 170.52L277.216 164.19L277.276 162.22L287.326 168.54ZM293.356 176.39L293.296 178.36L277.096 168.22L277.156 166.25L293.356 176.39ZM281.056 162.85L275.426 159.32L275.486 157.35L281.056 160.84V162.85ZM282.106 161.5L289.956 166.42L289.896 168.39L282.106 163.51V161.5ZM293.486 172.36L293.426 174.33L289.116 171.66L289.176 169.69L293.486 172.36Z" fill="black"/>
<defs>
<linearGradient id="paint0_linear_4455_914" x1="304.046" y1="343.4" x2="375.996" y2="226.14" gradientUnits="userSpaceOnUse">
<stop stop-opacity="0.48"/>
<stop offset="1" stop-opacity="0"/>
</linearGradient>
</defs>
</svg>
